<svg xmlns="http://www.w3.org/2000/svg" viewBox="0 0 326 378" role="img"><path d="M326,378H0V0H326ZM2,376H324V2H2Z" style="fill:#f3f3f3"/><path d="M152.1,259h-8.6v-1.47l4.26-4.65a10,10,0,0,0,1.31-1.71,2.82,2.82,0,0,0,.39-1.39,2.13,2.13,0,0,0-.51-1.48,1.79,1.79,0,0,0-1.38-.56,2.06,2.06,0,0,0-1.61.63,2.51,2.51,0,0,0-.57,1.73h-2.14a4.19,4.19,0,0,1,.53-2.09,3.63,3.63,0,0,1,1.52-1.46,4.79,4.79,0,0,1,2.28-.52,4.29,4.29,0,0,1,2.94.94,3.22,3.22,0,0,1,1.08,2.58,4.4,4.4,0,0,1-.54,2,11.41,11.41,0,0,1-1.77,2.39l-3.13,3.35h5.94Zm10-5.39a7,7,0,0,1-1,4.17,3.64,3.64,0,0,1-3.14,1.4,3.73,3.73,0,0,1-3.13-1.37,6.77,6.77,0,0,1-1.07-4.05v-2.21a6.94,6.94,0,0,1,1-4.14,4.32,4.32,0,0,1,6.29,0,6.69,6.69,0,0,1,1.06,4Zm-2.14-2.39a5.33,5.33,0,0,0-.49-2.63,1.87,1.87,0,0,0-3.1-.05,5,5,0,0,0-.52,2.48v2.9a5.57,5.57,0,0,0,.5,2.67,1.67,1.67,0,0,0,1.57.88,1.64,1.64,0,0,0,1.52-.81,5.23,5.23,0,0,0,.52-2.55ZM172.56,259H164v-1.47l4.26-4.65a10,10,0,0,0,1.31-1.71,2.83,2.83,0,0,0,.4-1.39,2.14,2.14,0,0,0-.52-1.48,1.79,1.79,0,0,0-1.38-.56,2.06,2.06,0,0,0-1.61.63,2.51,2.51,0,0,0-.57,1.73h-2.14a4.19,4.19,0,0,1,.53-2.09,3.63,3.63,0,0,1,1.52-1.46A4.79,4.79,0,0,1,168,246,4.27,4.27,0,0,1,171,247a3.22,3.22,0,0,1,1.08,2.58,4.4,4.4,0,0,1-.54,2,11.41,11.41,0,0,1-1.77,2.39l-3.13,3.35h5.94Zm7.41,0h-2.12V248.73l-3.14,1.07V248l5-1.84H180Z"/><path d="M135,284h-1.32v-4.6h-5V284H127.3v-9.95h1.31v4.28h5v-4.28H135Zm5.2.14a3.24,3.24,0,0,1-2.45-1,3.66,3.66,0,0,1-.94-2.64v-.24a4.58,4.58,0,0,1,.41-2,3.31,3.31,0,0,1,1.18-1.35,2.92,2.92,0,0,1,1.64-.49,2.74,2.74,0,0,1,2.24.95,4.07,4.07,0,0,1,.8,2.72v.52h-5a2.64,2.64,0,0,0,.64,1.77,2,2,0,0,0,1.56.67,2.22,2.22,0,0,0,1.13-.27,2.77,2.77,0,0,0,.81-.72l.78.6A3.11,3.11,0,0,1,140.15,284.14Zm-.16-6.63a1.64,1.64,0,0,0-1.28.56,2.7,2.7,0,0,0-.65,1.56h3.71v-.1a2.42,2.42,0,0,0-.52-1.49A1.57,1.57,0,0,0,140,277.51Zm8.58,1.12a1,1,0,0,0-.4-.82,1.67,1.67,0,0,0-1.08-.31,1.77,1.77,0,0,0-1.13.35,1,1,0,0,0-.44.82h-1.26a1.89,1.89,0,0,1,.81-1.58,3.75,3.75,0,0,1,4-.06,1.89,1.89,0,0,1,.72,1.59,1.56,1.56,0,0,1-.3.92,2.05,2.05,0,0,1-.85.66,1.7,1.7,0,0,1,1.29,1.72,1.92,1.92,0,0,1-.79,1.62,3.41,3.41,0,0,1-2.09.59,3.48,3.48,0,0,1-2.12-.62,2,2,0,0,1-.82-1.7h1.25a1.17,1.17,0,0,0,.48.93,1.89,1.89,0,0,0,1.21.39,1.93,1.93,0,0,0,1.17-.34,1,1,0,0,0,.44-.87,1,1,0,0,0-.38-.89,2,2,0,0,0-1.15-.27H145.9v-1.07h1.38C148.14,279.67,148.57,279.32,148.57,278.63Zm7.61,5.37a2.63,2.63,0,0,1-.18-.78,2.83,2.83,0,0,1-2.1.92,2.62,2.62,0,0,1-1.8-.62,2,2,0,0,1-.7-1.57,2.08,2.08,0,0,1,.87-1.79,4.16,4.16,0,0,1,2.48-.64H156v-.59a1.39,1.39,0,0,0-.4-1.05,1.59,1.59,0,0,0-1.17-.4,1.83,1.83,0,0,0-1.13.35,1,1,0,0,0-.46.82h-1.27a1.74,1.74,0,0,1,.39-1.06,2.62,2.62,0,0,1,1.07-.82,3.59,3.59,0,0,1,1.48-.3,2.9,2.9,0,0,1,2,.64,2.24,2.24,0,0,1,.75,1.76v3.4a4.21,4.21,0,0,0,.26,1.62V284Zm-2.1-1a2.29,2.29,0,0,0,1.13-.31,1.91,1.91,0,0,0,.77-.8v-1.52h-1c-1.55,0-2.33.45-2.33,1.36a1.16,1.16,0,0,0,.4.93A1.53,1.53,0,0,0,154.08,283Zm8.39-6a2.84,2.84,0,0,1,2.23.93,3.53,3.53,0,0,1,.84,2.46v.11a4.22,4.22,0,0,1-.4,1.88,3.12,3.12,0,0,1-1.16,1.28,3.32,3.32,0,0,1-1.74.45,3.11,3.11,0,0,1-2.4-1,3.87,3.87,0,0,1-.91-2.68v-.61a7,7,0,0,1,.86-3.71,3.67,3.67,0,0,1,2.56-1.67,3.34,3.34,0,0,0,1.29-.42.78.78,0,0,0,.34-.68h1a2.08,2.08,0,0,1-.39,1.34,2.15,2.15,0,0,1-1.23.67l-1,.22a3.09,3.09,0,0,0-1.69.9,3.17,3.17,0,0,0-.73,1.68A3.12,3.12,0,0,1,162.47,277Zm-.24,1a1.87,1.87,0,0,0-1.48.63,2.54,2.54,0,0,0-.55,1.72v.11a3,3,0,0,0,.55,1.89,1.82,1.82,0,0,0,1.49.69,1.77,1.77,0,0,0,1.49-.7,3.19,3.19,0,0,0,.55-2,2.5,2.5,0,0,0-.55-1.68A1.9,1.9,0,0,0,162.23,278.07Zm9.3,5.93a3,3,0,0,1-.18-.78,2.81,2.81,0,0,1-2.1.92,2.64,2.64,0,0,1-1.8-.62,2,2,0,0,1-.7-1.57,2.07,2.07,0,0,1,.88-1.79,4.12,4.12,0,0,1,2.47-.64h1.23v-.59a1.42,1.42,0,0,0-.39-1.05,1.62,1.62,0,0,0-1.17-.4,1.86,1.86,0,0,0-1.14.35,1,1,0,0,0-.45.82H166.9a1.74,1.74,0,0,1,.39-1.06,2.69,2.69,0,0,1,1.07-.82,3.59,3.59,0,0,1,1.48-.3,2.92,2.92,0,0,1,2,.64,2.31,2.31,0,0,1,.75,1.76v3.4a4,4,0,0,0,.26,1.62V284Zm-2.1-1a2.26,2.26,0,0,0,1.13-.31,1.85,1.85,0,0,0,.77-.8v-1.52h-1c-1.55,0-2.32.45-2.32,1.36a1.15,1.15,0,0,0,.39.93A1.57,1.57,0,0,0,169.43,283Zm11.4-2.66a4.43,4.43,0,0,1-.77,2.72,2.5,2.5,0,0,1-2.1,1,2.7,2.7,0,0,1-2.11-.86v3.56h-1.27V276.6h1.16l.06.82a2.61,2.61,0,0,1,2.14-.95,2.52,2.52,0,0,1,2.11,1,4.46,4.46,0,0,1,.78,2.8Zm-1.27-.14a3.22,3.22,0,0,0-.53-2,1.69,1.69,0,0,0-1.46-.73,1.85,1.85,0,0,0-1.72,1v3.53a1.83,1.83,0,0,0,1.73,1,1.7,1.7,0,0,0,1.44-.71A3.59,3.59,0,0,0,179.56,280.24Zm2.55,0a4.43,4.43,0,0,1,.42-2,3.14,3.14,0,0,1,2.93-1.81,3.12,3.12,0,0,1,2.44,1,4,4,0,0,1,.94,2.79v.08a4.43,4.43,0,0,1-.42,1.95,3.11,3.11,0,0,1-1.18,1.33,3.25,3.25,0,0,1-1.76.48,3.1,3.1,0,0,1-2.44-1.05,4,4,0,0,1-.93-2.77Zm1.27.15a3.19,3.19,0,0,0,.57,2,1.94,1.94,0,0,0,3.06,0,3.45,3.45,0,0,0,.56-2.12,3.09,3.09,0,0,0-.58-2,1.92,1.92,0,0,0-3,0A3.46,3.46,0,0,0,183.38,280.38Zm11.3,1.95,2.52-5.73h1.58V284h-1.27v-5.38L195.12,284h-.87l-2.44-5.5V284h-1.27v-7.4h1.64Z"/><path d="M208,205H118a6.05,6.05,0,0,1-4.25-1.76A6,6,0,0,1,112,199V89a6,6,0,0,1,6-6h60a1,1,0,0,1,.71.29l35,35a1,1,0,0,1,.29.71v80a6,6,0,0,1-6,6ZM118,85a4,4,0,0,0-2.83,1.17A4,4,0,0,0,114,89V199a4,4,0,0,0,1.17,2.83A4,4,0,0,0,118,203h90a4,4,0,0,0,1.53-.3,4,4,0,0,0,2.17-2.17A4,4,0,0,0,212,199V119.41L177.59,85Z" style="fill:#f3f3f3"/><path d="M213,120H178a1,1,0,0,1-1-1V84a1,1,0,0,1,2,0v34h34a1,1,0,0,1,0,2Z" style="fill:#f3f3f3"/><path d="M183,150H143a1,1,0,0,1,0-2h40a1,1,0,0,1,0,2Z" style="fill:#f3f3f3"/><path d="M183,170H143a1,1,0,0,1,0-2h40a1,1,0,0,1,0,2Z" style="fill:#f3f3f3"/></svg>