<svg xmlns="http://www.w3.org/2000/svg" width="326" height="378" viewBox="0 0 326 378"><path d="M326,378H0V0H326ZM2,376H324V2H2Z" style="fill:#f3f3f3"/><path d="M208,205H118a6,6,0,0,1-6-6V89a6,6,0,0,1,6-6h60a1,1,0,0,1,.71.29l35,35a1,1,0,0,1,.29.71v80A6,6,0,0,1,208,205ZM118,85a4,4,0,0,0-4,4V199a4,4,0,0,0,4,4h90a4,4,0,0,0,4-4V119.41L177.59,85Z" style="fill:#f3f3f3"/><path d="M213,120H178a1,1,0,0,1-1-1V84a1,1,0,0,1,2,0v34h34a1,1,0,0,1,0,2Z" style="fill:#f3f3f3"/><path d="M183,150H143a1,1,0,0,1,0-2h40a1,1,0,0,1,0,2Z" style="fill:#f3f3f3"/><path d="M183,170H143a1,1,0,0,1,0-2h40a1,1,0,0,1,0,2Z" style="fill:#f3f3f3"/></svg>