<svg xmlns="http://www.w3.org/2000/svg" viewBox="0 0 505.8 698.3"><path d="M163.8 43.3a8 8 0 018-8h42a8 8 0 018 8v43h-58z" fill="#19aa52"/><path d="M190.2 64.6h-4.7l-.8 2.7h-2.9l4.8-12.8h2.5l4.7 12.8H191zm-4-2h3.2l-1.6-4.9zM200 60h3.2v2.3H200V66h-2.4v-3.6h-3.2v-2.3h3.2v-3.4h2.4z" fill="#fff"/><path fill="#7dc374" d="M163.8 86.3h58v51h-58z"/><path d="M195 115.6h-4.6l-.8 2.7h-2.8l4.7-12.8h2.4l4.8 12.8H196zm-3.8-2h3.2l-1.7-4.9z" fill="#fff"/><path fill="#abd59e" d="M163.8 137.3h58v51h-58z"/><path d="M191.6 166.6h-4.7l-.8 2.7h-2.8l4.7-12.8h2.5l4.8 12.8h-2.8zm-4-2h3.3l-1.7-4.9zm13.6.2h-5v-2h5z" fill="#fff"/><path fill="#1791d2" d="M163.8 188.3h58v51h-58z"/><path d="M183.2 220.3v-12.8h4.6a5.9 5.9 0 013.5.9 3 3 0 011.2 2.6 3 3 0 01-.5 1.7 2.8 2.8 0 01-1.3 1 2.7 2.7 0 011.5 1 3 3 0 01.6 1.8 3.4 3.4 0 01-1.2 2.8 5.2 5.2 0 01-3.4 1zm2.7-5.6v3.5h2.2a2.1 2.1 0 001.5-.5 1.5 1.5 0 00.5-1.2 1.6 1.6 0 00-1.8-1.8zm0-1.9h2c1.2 0 2-.5 2-1.6a1.4 1.4 0 00-.6-1.2 2.6 2.6 0 00-1.6-.4H186zm13.8.3h3.2v2.3h-3.2v3.6h-2.4v-3.6H194v-2.3h3.2v-3.4h2.4z" fill="#fff"/><path fill="#44b5e5" d="M163.8 239.3h58v51h-58z"/><path d="M188.2 271.3v-12.8h4.4a5.8 5.8 0 013.6.9 3 3 0 011.2 2.6 3 3 0 01-.5 1.6 2.8 2.8 0 01-1.4 1.1 2.6 2.6 0 011.6 1 3 3 0 01.5 1.8 3.4 3.4 0 01-1.1 2.8 5.3 5.3 0 01-3.4 1zm2.6-5.6v3.5h2.2a2.1 2.1 0 001.5-.5 1.5 1.5 0 00.5-1.2 1.6 1.6 0 00-1.8-1.8zm0-1.9h2c1.3 0 2-.5 2-1.6a1.4 1.4 0 00-.6-1.2 2.6 2.6 0 00-1.5-.4h-2z" fill="#fff"/><path fill="#93ceef" d="M163.8 290.3h58v51h-58z"/><path d="M184.7 322.3v-12.8h4.4a5.8 5.8 0 013.6.9 3 3 0 011.2 2.6 3 3 0 01-.5 1.6 2.8 2.8 0 01-1.3 1.1 2.6 2.6 0 011.5 1 2.9 2.9 0 01.6 1.8 3.4 3.4 0 01-1.2 2.8 5.3 5.3 0 01-3.4 1zm2.6-5.6v3.5h2.2a2.1 2.1 0 001.5-.5 1.5 1.5 0 00.5-1.2 1.6 1.6 0 00-1.8-1.8zm0-1.9h2c1.3 0 2-.5 2-1.6a1.4 1.4 0 00-.6-1.2 2.6 2.6 0 00-1.5-.4h-1.9zm13.6 3h-5v-2h5z"/><path fill="#fee533" d="M163.8 341.3h58v51h-58z"/><path d="M193.1 369a4.5 4.5 0 01-1.5 3.3 5.3 5.3 0 01-3.6 1.1 4.8 4.8 0 01-3.9-1.6 6.8 6.8 0 01-1.4-4.6v-.8a7.7 7.7 0 01.7-3.2 5 5 0 011.8-2.2 5.8 5.8 0 016.4.5 5 5 0 011.6 3.3h-2.7a2.7 2.7 0 00-.7-1.8 2.5 2.5 0 00-1.8-.6 2.3 2.3 0 00-2 1 5.3 5.3 0 00-.6 3v1a5.6 5.6 0 00.6 3 2.2 2.2 0 002 1 2.6 2.6 0 001.8-.6 2.6 2.6 0 00.7-1.8zm6.7-2.9h3.2v2.3h-3.2v3.6h-2.4v-3.6h-3.2v-2.3h3.2v-3.4h2.4z"/><path fill="#fef25e" d="M163.8 392.3h58v51h-58z"/><path d="M198 420a4.5 4.5 0 01-1.5 3.3 5.3 5.3 0 01-3.6 1.1 4.8 4.8 0 01-3.9-1.6 6.8 6.8 0 01-1.4-4.6v-.8a7.5 7.5 0 01.7-3.2 4.9 4.9 0 011.8-2.2 5.8 5.8 0 016.4.5 5 5 0 011.6 3.3h-2.7a2.7 2.7 0 00-.7-1.8 2.6 2.6 0 00-1.8-.6 2.3 2.3 0 00-2 1 5.2 5.2 0 00-.6 3v1a5.7 5.7 0 00.6 3 2.2 2.2 0 002 1 2.6 2.6 0 001.8-.6 2.6 2.6 0 00.7-1.8z"/><path fill="#fff8b2" d="M163.8 443.3h58v51h-58z"/><path d="M194.6 471a4.5 4.5 0 01-1.6 3.3 5.3 5.3 0 01-3.6 1.1 4.8 4.8 0 01-3.9-1.6 6.8 6.8 0 01-1.4-4.6v-.8a7.7 7.7 0 01.7-3.2 4.9 4.9 0 011.8-2.2 5.3 5.3 0 012.9-.7 5.2 5.2 0 013.5 1.2 4.9 4.9 0 011.6 3.3h-2.7a2.6 2.6 0 00-.7-1.8 2.6 2.6 0 00-1.7-.6 2.3 2.3 0 00-2 1 5.2 5.2 0 00-.7 3v1a5.7 5.7 0 00.6 3 2.2 2.2 0 002 1 2.6 2.6 0 001.8-.6 2.5 2.5 0 00.7-1.8zm6.5-.2h-5v-2h5z"/><path fill="#fcbc4d" d="M163.8 494.3h58v51h-58z"/><path d="M183.1 526.3v-12.8h4a6 6 0 013 .8 5.2 5.2 0 012 2.1 6.6 6.6 0 01.8 3.2v.6a6.7 6.7 0 01-.7 3.1 5.3 5.3 0 01-2.1 2.2 6 6 0 01-3 .8zm2.7-10.7v8.6h1.2a2.8 2.8 0 002.4-1 4.5 4.5 0 00.8-3v-.6a4.6 4.6 0 00-.8-3 2.9 2.9 0 00-2.3-1zm14 3.5h3.1v2.3h-3.2v3.6h-2.4v-3.6h-3.1v-2.3h3.1v-3.4h2.4z"/><path fill="#f2793d" d="M163.8 545.3h58v51h-58z"/><path d="M188 577.3v-12.8h4a6 6 0 013 .8 5.2 5.2 0 012 2.1 6.6 6.6 0 01.8 3.2v.6a6.7 6.7 0 01-.7 3.1 5.2 5.2 0 01-2 2.2 6 6 0 01-3 .8zm2.7-10.7v8.6h1.2a2.8 2.8 0 002.4-1 4.5 4.5 0 00.8-3v-.6a4.6 4.6 0 00-.8-3 2.9 2.9 0 00-2.3-1z" fill="#fff"/><path fill="#ed4243" d="M163.8 596.3h58v51h-58z"/><path d="M184.6 628.3v-12.8h3.9a6 6 0 013 .8 5.3 5.3 0 012 2.1 6.7 6.7 0 01.8 3.2v.6a6.5 6.5 0 01-.7 3.1 5.2 5.2 0 01-2 2.2 6 6 0 01-3 .8zm2.6-10.7v8.6h1.3a2.8 2.8 0 002.3-1 4.5 4.5 0 00.9-3v-.6a4.6 4.6 0 00-.8-3 2.9 2.9 0 00-2.4-1zm13.8 6.2h-5v-2h5z" fill="#fff"/><path d="M163.8 647.3h58v43a8 8 0 01-8 8h-42a8 8 0 01-8-8z" fill="#403339"/><path d="M196.7 674h-5.1v5.3H189v-12.8h8.3v2.1h-5.7v3.3h5z" fill="#fff"/><path d="M6.4 54a4.3 4.3 0 00-4.6 4.4A4.1 4.1 0 006 62.7 3.7 3.7 0 009.2 61c0 3-1 4.8-3 4.8a2.3 2.3 0 01-2.3-2H2a4.1 4.1 0 004.3 3.7c3 0 5-2.6 5-7.2 0-4.8-2.4-6.3-4.8-6.3zm0 1.7A2.7 2.7 0 019 58.4a2.7 2.7 0 01-2.7 2.7 2.6 2.6 0 01-2.5-2.7 2.6 2.6 0 012.6-2.7zm11.4 11.8a4.3 4.3 0 004.5-4.5 4.1 4.1 0 00-4.2-4.3 3.6 3.6 0 00-2.4.8L16 56h5.5v-1.7h-7.2l-.7 6.6 1.9.3a3.5 3.5 0 012.1-.8 2.7 2.7 0 012.7 2.8 2.6 2.6 0 01-2.6 2.7 2.2 2.2 0 01-2.4-2h-2c.2 2.2 2 3.7 4.3 3.7zm17.4-7.6h-5.8v1.7h5.8zm12.2-5.7h-1.9l-3.3 2.1v2l3.2-2v11h2zm8.1 13.3c3 0 4.8-2.5 4.8-6.8S58.5 54 55.5 54s-4.8 2.5-4.8 6.7 1.8 6.8 4.8 6.8zm0-1.7c-1.8 0-2.8-1.8-2.8-5s1.1-5.1 2.9-5.1 2.8 1.8 2.8 5-1.1 5-2.9 5zm11.7 1.7c3 0 4.7-2.5 4.7-6.8S70.3 54 67.3 54s-4.8 2.5-4.8 6.7 1.7 6.8 4.8 6.8zm0-1.7c-1.8 0-2.9-1.8-2.9-5s1-5.1 2.9-5.1 2.8 1.8 2.8 5-1 5-2.8 5z"/><path d="M.8 86.3h131" fill="none" stroke="#e0e0e0" stroke-linecap="square" stroke-linejoin="round" stroke-width="1.5"/><path d="M6.4 105a4.3 4.3 0 00-4.6 4.4 4.1 4.1 0 004.1 4.3 3.8 3.8 0 003.3-1.7c0 3-1 4.8-3 4.8a2.3 2.3 0 01-2.3-2H2a4.1 4.1 0 004.3 3.7c3 0 5-2.6 5-7.2 0-4.8-2.4-6.3-4.8-6.3zm0 1.7a2.7 2.7 0 012.6 2.7 2.7 2.7 0 01-2.7 2.7 2.6 2.6 0 01-2.5-2.7 2.6 2.6 0 012.6-2.7zM18 118.5c3 0 4.8-2.5 4.8-6.8S21 105 18 105s-4.8 2.5-4.8 6.7 1.8 6.8 4.8 6.8zm0-1.7c-1.8 0-2.8-1.8-2.8-5s1-5 2.8-5 2.8 1.7 2.8 5-1 5-2.8 5zm17.7-5.9h-5.9v1.7h5.8zm11.6-5.9a4.3 4.3 0 00-4.5 4.4 4.1 4.1 0 004 4.3 3.8 3.8 0 003.3-1.7c0 3-1 4.8-3 4.8a2.3 2.3 0 01-2.3-2h-2a4.1 4.1 0 004.3 3.7c3 0 5-2.6 5-7.2 0-4.8-2.5-6.3-4.8-6.3zm0 1.7a2.7 2.7 0 012.6 2.7 2.7 2.7 0 01-2.7 2.7 2.6 2.6 0 01-2.6-2.7 2.6 2.6 0 012.7-2.7zm6.8 9h6.2v2.5h1.9v-2.5h1.7V114h-1.7V105h-2.5l-5.6 9zm6.2-1.7h-4.1l4-6.4z"/><path d="M.8 137.3h131" fill="none" stroke="#e0e0e0" stroke-linecap="square" stroke-linejoin="round" stroke-width="1.5"/><path d="M6.4 169.5c2.8 0 4.7-1.6 4.7-3.7a3.3 3.3 0 00-2.6-3.3 3 3 0 002.1-3c0-2-1.8-3.5-4.2-3.5s-4.1 1.5-4.1 3.5a2.9 2.9 0 002.1 3 3.3 3.3 0 00-2.6 3.3c0 2.1 1.9 3.7 4.6 3.7zm0-1.7c-1.6 0-2.7-.8-2.7-2.1a2.4 2.4 0 012.7-2.4 2.4 2.4 0 012.7 2.4c0 1.3-1 2.1-2.7 2.1zm0-6a2 2 0 01-2.2-2.1 2 2 0 012.2-2 2 2 0 012.3 2 2 2 0 01-2.3 2zm11.3 7.7a4.3 4.3 0 004.6-4.4 4.1 4.1 0 00-4.2-4.4 3.5 3.5 0 00-2.4.9l.4-3.7h5.5v-1.7h-7.2l-.7 6.6 1.8.3a3.5 3.5 0 012.2-.8 2.7 2.7 0 012.6 2.8 2.6 2.6 0 01-2.6 2.7 2.2 2.2 0 01-2.3-2h-2c0 2.2 1.9 3.7 4.3 3.7zm17.5-7.6h-5.9v1.7h5.8zm11.7 7.6c2.7 0 4.6-1.6 4.6-3.7a3.4 3.4 0 00-2.6-3.3 3 3 0 002.2-3c0-2-1.8-3.5-4.2-3.5s-4.2 1.5-4.2 3.5a2.9 2.9 0 002.1 3 3.3 3.3 0 00-2.6 3.3c0 2.1 1.9 3.7 4.6 3.7zm0-1.7c-1.7 0-2.7-.8-2.7-2.1a2.4 2.4 0 012.7-2.4 2.5 2.5 0 012.6 2.4c0 1.3-1 2.1-2.7 2.1zm0-6a2 2 0 01-2.3-2.1 2 2 0 012.3-2 2 2 0 012.2 2 2 2 0 01-2.3 2zM58 156a4.3 4.3 0 00-4.5 4.4 4.1 4.1 0 004 4.3A3.8 3.8 0 0061 163h.1c0 3-1.1 4.8-3 4.8a2.3 2.3 0 01-2.3-2h-2a4 4 0 004.3 3.7c3 0 5-2.6 5-7.2-.1-4.8-2.5-6.3-4.9-6.3zm0 1.7a2.7 2.7 0 012.6 2.7 2.7 2.7 0 01-2.6 2.7 2.6 2.6 0 01-2.6-2.7 2.6 2.6 0 012.6-2.7z"/><path d="M.8 188.3h131" fill="none" stroke="#e0e0e0" stroke-linecap="square" stroke-linejoin="round" stroke-width="1.5"/><path d="M6.4 220.5c2.8 0 4.7-1.6 4.7-3.7a3.3 3.3 0 00-2.6-3.3 3 3 0 002.1-3c0-2-1.8-3.5-4.2-3.5s-4.1 1.5-4.1 3.5a2.9 2.9 0 002.1 3 3.3 3.3 0 00-2.6 3.3c0 2.1 1.9 3.7 4.6 3.7zm0-1.7c-1.6 0-2.7-.8-2.7-2.1a2.4 2.4 0 012.7-2.4 2.4 2.4 0 012.7 2.4c0 1.3-1 2.1-2.7 2.1zm0-6a2 2 0 01-2.2-2.1 2 2 0 012.2-2 2 2 0 012.3 2 2 2 0 01-2.3 2zm11.5 7.7c3 0 4.8-2.5 4.8-6.8S21 207 18 207s-4.7 2.5-4.8 6.7 1.8 6.8 4.8 6.8zm0-1.7c-1.7 0-2.8-1.8-2.8-5s1-5 2.8-5 2.9 1.7 2.9 5-1 5-2.9 5zm17.7-5.9h-5.9v1.7h5.9zm11.7 7.6c2.7 0 4.6-1.6 4.6-3.7a3.3 3.3 0 00-2.6-3.3 3 3 0 002.2-3c0-2-1.8-3.5-4.2-3.5s-4.2 1.5-4.2 3.5a2.9 2.9 0 002.2 3 3.3 3.3 0 00-2.7 3.3c0 2.1 2 3.7 4.7 3.7zm0-1.7c-1.6 0-2.7-.8-2.7-2.1a2.4 2.4 0 012.7-2.4 2.4 2.4 0 012.6 2.4c0 1.3-1 2.1-2.6 2.1zm0-6a2 2 0 01-2.3-2.1 2 2 0 012.3-2 2 2 0 012.2 2 2 2 0 01-2.2 2zm6.7 5h6.2v2.5H62v-2.6h1.8v-1.6H62v-8.9h-2.4l-5.6 9zm6.2-1.7H56v-.1l4-6.4h.1z"/><path d="M.8 239.3h131" fill="none" stroke="#e0e0e0" stroke-linecap="square" stroke-linejoin="round" stroke-width="1.5"/><path d="M2.5 271.3h2l5.7-11.4v-1.7H1.6v1.7h6.6zm14 .2a4.3 4.3 0 004.6-4.5 4.1 4.1 0 00-4.2-4.3 3.5 3.5 0 00-2.3.8h-.1l.4-3.6h5.6v-1.7h-7.2l-.8 6.6 1.8.2a3.5 3.5 0 012.2-.7 2.6 2.6 0 012.7 2.8 2.6 2.6 0 01-2.6 2.7 2.2 2.2 0 01-2.4-2h-2c.2 2.2 2 3.7 4.4 3.7zm17.5-7.6h-5.8v1.7H34zm7.8 7.4h2l5.7-11.4v-1.7h-8.7v1.7h6.6zm14-13.3a4.3 4.3 0 00-4.5 4.4 4.1 4.1 0 004.1 4.3 3.8 3.8 0 003.3-1.7c0 3-1 4.8-3 4.8a2.3 2.3 0 01-2.3-2h-2a4 4 0 004.4 3.7c3 0 4.9-2.7 4.9-7.2 0-4.8-2.5-6.3-4.8-6.3zm0 1.7a2.7 2.7 0 012.7 2.7 2.7 2.7 0 01-2.7 2.7 2.6 2.6 0 01-2.6-2.7 2.6 2.6 0 012.7-2.7z"/><path d="M.8 290.3h131" fill="none" stroke="#e0e0e0" stroke-linecap="square" stroke-linejoin="round" stroke-width="1.5"/><path d="M2.5 322.3h2l5.7-11.4v-1.7H1.6v1.7h6.6zm14.3.2c3 0 4.7-2.5 4.7-6.8s-1.8-6.7-4.8-6.7-4.7 2.5-4.7 6.7 1.7 6.8 4.8 6.8zm0-1.7c-1.8 0-2.9-1.8-2.9-5s1-5.1 2.8-5.1 2.9 1.8 2.9 5-1.1 5-2.9 5zm17.6-5.9h-5.9v1.7h5.9zm7.7 7.4h2l5.8-11.4v-1.7h-8.7v1.7h6.5zm8.6-2.6H57v2.6h1.9v-2.6h1.6v-1.6h-1.7v-9h-2.4l-5.6 9zm6.3-1.6h-4.2v-.1l4-6.4h.1z"/><path d="M.8 341.3h131" fill="none" stroke="#e0e0e0" stroke-linecap="square" stroke-linejoin="round" stroke-width="1.5"/><path d="M6.6 373.5A4.3 4.3 0 0011 369a4.1 4.1 0 00-4-4.3 3.7 3.7 0 00-3.3 1.8c0-3 1-4.8 3-4.8a2.3 2.3 0 012.3 1.9h2a4.1 4.1 0 00-4.3-3.6c-3 0-5 2.6-5 7.2 0 4.8 2.5 6.2 4.8 6.3zm0-1.7A2.7 2.7 0 014 369a2.7 2.7 0 012.6-2.7 2.6 2.6 0 012.6 2.7 2.7 2.7 0 01-2.6 2.8zm11.2 1.7a4.3 4.3 0 004.5-4.5 4.1 4.1 0 00-4.2-4.3 3.6 3.6 0 00-2.4.8l.4-3.6h5.5v-1.7h-7.2l-.7 6.6 1.8.2a3.5 3.5 0 012.2-.7 2.7 2.7 0 012.7 2.8 2.6 2.6 0 01-2.6 2.7 2.2 2.2 0 01-2.4-2h-2c.2 2.2 2 3.7 4.3 3.7zm17.4-7.6h-5.8v1.7h5.8zm11.8 7.6a4.3 4.3 0 004.6-4.5 4.1 4.1 0 00-4.1-4.3 3.7 3.7 0 00-3.2 1.8h-.1c0-3 1-4.8 3-4.8a2.3 2.3 0 012.3 1.9h2a4.1 4.1 0 00-4.3-3.6c-3 0-5 2.6-5 7.2 0 4.8 2.5 6.2 4.8 6.3zm0-1.7a2.7 2.7 0 01-2.6-2.8 2.7 2.7 0 012.7-2.7 2.6 2.6 0 012.6 2.7 2.7 2.7 0 01-2.7 2.8zM58.3 360a4.3 4.3 0 00-4.5 4.4 4.1 4.1 0 004 4.3 3.8 3.8 0 003.3-1.7c0 3-1 4.8-3 4.8a2.3 2.3 0 01-2.4-2h-1.9a4 4 0 004.3 3.7c3 0 5-2.6 5-7.2 0-4.8-2.5-6.3-4.8-6.3zm0 1.7a2.7 2.7 0 012.6 2.7 2.7 2.7 0 01-2.7 2.7 2.6 2.6 0 01-2.6-2.7 2.6 2.6 0 012.7-2.7z"/><path d="M.8 392.3h131" fill="none" stroke="#e0e0e0" stroke-linecap="square" stroke-linejoin="round" stroke-width="1.5"/><path d="M6.6 424.5A4.3 4.3 0 0011 420a4.1 4.1 0 00-4-4.3 3.7 3.7 0 00-3.3 1.8c0-3 1-4.8 3-4.8a2.3 2.3 0 012.3 1.9h2a4.1 4.1 0 00-4.3-3.6c-3 0-5 2.6-5 7.2 0 4.8 2.5 6.2 4.8 6.3zm0-1.7A2.7 2.7 0 014 420a2.7 2.7 0 012.6-2.7 2.6 2.6 0 012.6 2.7 2.7 2.7 0 01-2.6 2.8zm11.4 1.7c3 0 4.8-2.5 4.8-6.8S21 411 18 411s-4.8 2.5-4.8 6.7 1.8 6.8 4.8 6.8zm0-1.7c-1.8 0-2.8-1.8-2.8-5s1-5.1 2.8-5.1 2.8 1.8 2.8 5-1 5-2.8 5zm17.7-5.9h-5.9v1.7h5.8zm11.8 7.6A4.3 4.3 0 0052 420a4.1 4.1 0 00-4-4.3 3.8 3.8 0 00-3.3 1.8c0-3 1-4.8 3-4.8a2.3 2.3 0 012.3 1.9h2a4.1 4.1 0 00-4.3-3.6c-3 0-5 2.6-5 7.2 0 4.8 2.5 6.2 4.8 6.3zm0-1.7A2.7 2.7 0 0145 420a2.7 2.7 0 012.7-2.7A2.6 2.6 0 0150 420a2.7 2.7 0 01-2.6 2.8zm6.6-1h6.2v2.5h2v-2.6h1.6V420h-1.7v-8.8h-2.5l-5.6 9zm6.2-1.8h-4.1l4-6.4z"/><path d="M.8 443.3h131" fill="none" stroke="#e0e0e0" stroke-linecap="square" stroke-linejoin="round" stroke-width="1.5"/><path d="M6.3 475.5a4.3 4.3 0 004.5-4.5 4.1 4.1 0 00-4.1-4.3 3.5 3.5 0 00-2.4.8l.4-3.6h5.5v-1.7H3l-.7 6.6 1.8.2a3.5 3.5 0 012.2-.7 2.7 2.7 0 012.6 2.8 2.6 2.6 0 01-2.6 2.7 2.2 2.2 0 01-2.3-2H2c.1 2.2 2 3.7 4.3 3.7zm11.2 0A4.3 4.3 0 0022 471a4.1 4.1 0 00-4.1-4.3 3.5 3.5 0 00-2.4.8h-.1l.4-3.6h5.6v-1.7h-7.2l-.8 6.6 1.8.2a3.5 3.5 0 012.2-.7 2.7 2.7 0 012.7 2.8 2.6 2.6 0 01-2.6 2.7 2.2 2.2 0 01-2.4-2h-1.9c0 2.2 1.9 3.7 4.3 3.7zm17.4-7.6h-5.8v1.7h5.8zm11.6 7.6A4.3 4.3 0 0051 471a4.1 4.1 0 00-4.1-4.3 3.6 3.6 0 00-2.4.8l.3-3.6h5.6v-1.7h-7.2l-.8 6.6 1.9.2a3.5 3.5 0 012.1-.7 2.7 2.7 0 012.7 2.8 2.6 2.6 0 01-2.6 2.7 2.2 2.2 0 01-2.4-2h-1.9c.1 2.2 2 3.7 4.3 3.7zM57.8 462a4.3 4.3 0 00-4.6 4.4 4.1 4.1 0 004 4.3 3.8 3.8 0 003.3-1.7h.1c0 3-1.1 4.8-3 4.8a2.3 2.3 0 01-2.4-2h-2a4 4 0 004.3 3.7c3 0 5-2.6 5-7.2 0-4.8-2.5-6.3-4.8-6.3zm0 1.7a2.7 2.7 0 012.6 2.7 2.7 2.7 0 01-2.7 2.7 2.6 2.6 0 01-2.6-2.7 2.6 2.6 0 012.6-2.7z"/><path d="M.8 494.3h131" fill="none" stroke="#e0e0e0" stroke-linecap="square" stroke-linejoin="round" stroke-width="1.5"/><path d="M6.3 526.5a4.3 4.3 0 004.5-4.4 4.1 4.1 0 00-4.1-4.4 3.5 3.5 0 00-2.4.9l.4-3.7h5.5v-1.7H3l-.7 6.6 1.8.3a3.5 3.5 0 012.2-.8 2.7 2.7 0 012.6 2.8 2.6 2.6 0 01-2.6 2.7 2.2 2.2 0 01-2.3-2H2c.1 2.2 2 3.7 4.3 3.7zm11.4 0c3 0 4.8-2.5 4.8-6.8s-1.8-6.7-4.8-6.7-4.7 2.5-4.7 6.7 1.8 6.8 4.8 6.8zm0-1.7c-1.7 0-2.8-1.8-2.8-5s1-5 2.8-5 2.9 1.7 2.9 5-1.1 5-2.9 5zm17.7-6h-5.8v1.7h5.8zm11.6 7.6a4.3 4.3 0 004.5-4.4 4.1 4.1 0 00-4.2-4.4 3.5 3.5 0 00-2.4 1l.4-3.8h5.5v-1.6h-7.1l-.8 6.5 1.8.3a3.5 3.5 0 012.2-.7 2.7 2.7 0 012.7 2.8 2.6 2.6 0 01-2.6 2.7 2.2 2.2 0 01-2.4-2h-2c.1 2.2 2 3.7 4.4 3.7zm6.5-2.7h6.3v2.5h1.8v-2.5h1.8V522h-1.8v-8.9h-2.4l-5.7 9zm6.3-1.7h-4.2l4-6.4h.1z"/><path d="M.8 545.3h131" fill="none" stroke="#e0e0e0" stroke-linecap="square" stroke-linejoin="round" stroke-width="1.5"/><path d="M1.8 574.7h6.1v2.6h2v-2.6h1.7V573H9.8v-8.8H7.4l-5.7 9zM8 573H3.8l4-6.4H8zm10.1 4.5a4.3 4.3 0 004.5-4.4 4.1 4.1 0 00-4.1-4.4 3.5 3.5 0 00-2.4.9l.3-3.7H22v-1.7h-7.2l-.8 6.6 1.8.3a3.5 3.5 0 012.2-.8 2.7 2.7 0 012.8 2.8 2.6 2.6 0 01-2.6 2.7 2.2 2.2 0 01-2.4-2h-2c.1 2.2 2 3.7 4.3 3.7zm17.4-7.6h-5.8v1.7h5.9zm7 4.8h6.3v2.6h1.8v-2.6h1.8V573h-1.8v-8.8h-2.4l-5.7 9zm6.3-1.7h-4.2l4-6.4h.1zm10.1-9a4.3 4.3 0 00-4.5 4.5 4.1 4.1 0 004 4.3 3.8 3.8 0 003.4-1.8c0 3-1 4.8-3 4.8a2.3 2.3 0 01-2.3-2h-2a4 4 0 004.3 3.7c3 0 4.9-2.6 4.9-7.2 0-4.8-2.4-6.3-4.8-6.3zm0 1.7a2.7 2.7 0 012.7 2.7 2.7 2.7 0 01-2.7 2.8 2.6 2.6 0 01-2.6-2.8 2.6 2.6 0 012.6-2.7z"/><path d="M.8 596.3h131" fill="none" stroke="#e0e0e0" stroke-linecap="square" stroke-linejoin="round" stroke-width="1.5"/><path d="M1.8 625.7h6.1v2.6h2v-2.6h1.7V624H9.8v-8.8H7.4l-5.7 9zM8 624H3.8l4-6.4H8zm10.4 4.5c3 0 4.8-2.5 4.8-6.8s-1.8-6.7-4.8-6.7-4.8 2.5-4.8 6.7 1.7 6.8 4.7 6.8zm0-1.7c-1.8 0-2.9-1.8-2.9-5s1.1-5 2.9-5 2.8 1.8 2.8 5-1 5-2.9 5zm17.6-5.9h-5.8v1.7H36zm7 4.8h6.2v2.6h1.9v-2.6h1.7V624h-1.7v-8.8h-2.5l-5.6 9zm6.2-1.7h-4.1l4-6.4zm5.5 1.7H61v2.6h2v-2.6h1.7V624h-1.7v-8.8h-2.5l-5.6 9zM61 624h-4.2l4-6.4h.2z"/><path d="M.8 647.3h131" fill="none" stroke="#e0e0e0" stroke-linecap="square" stroke-linejoin="round" stroke-width="1.5"/><path d="M6.6 679.5c3 0 4.8-2.5 4.8-6.8S9.6 666 6.6 666s-4.8 2.5-4.8 6.7 1.7 6.8 4.8 6.8zm0-1.7c-1.8 0-2.9-1.8-2.9-5s1.1-5 2.9-5 2.8 1.8 2.8 5-1 5-2.8 5zm17.6-5.9h-5.8v1.7h5.8zm11.8 7.6c2.7 0 4.7-1.6 4.7-3.8a3 3 0 00-2.8-3.1v-.1a2.9 2.9 0 002.3-3c0-1.9-1.6-3.5-4.1-3.5s-4.4 1.5-4.4 3.6h2a2.2 2.2 0 012.4-2 2 2 0 012.2 2 2.2 2.2 0 01-2.4 2.2h-1.1v1.6h1c1.9 0 3 .9 3 2.2s-1.2 2.1-2.7 2.1-2.6-.7-2.6-1.8h-2c0 2.1 1.9 3.6 4.5 3.6zM47.4 666a4.3 4.3 0 00-4.5 4.4 4.1 4.1 0 004 4.3 3.8 3.8 0 003.3-1.7h.1c0 3-1.1 4.8-3 4.8a2.3 2.3 0 01-2.3-2h-2a4.1 4.1 0 004.3 3.7c3 0 5-2.6 5-7.2 0-4.8-2.5-6.3-4.9-6.3zm0 1.7a2.7 2.7 0 012.7 2.7 2.7 2.7 0 01-2.7 2.7 2.6 2.6 0 01-2.6-2.7 2.6 2.6 0 012.7-2.7zM272.3 67.3l1.2-3.5h5.1l1.2 3.5h2.1l-4.7-13.1h-2.3l-4.7 13zm1.8-5.1l1.9-5.6h.1l2 5.5zm17.1-8.4a3.6 3.6 0 01-2.2.4h-1c-3.2 0-4.8 2.3-4.8 6.8v1c0 3.6 1.8 5.5 4.5 5.5s4.5-2 4.5-5-1.7-4.7-4-4.7a3.5 3.5 0 00-3.3 1.8h-.1c.2-2.4 1.1-3.7 3.2-3.7 1.9-.1 3.1 0 4-1zm-3.4 12c-1.7 0-2.7-1.2-2.7-3.2s1-3.2 2.6-3.2 2.6 1.2 2.6 3.2-1 3.3-2.6 3.3zm10.7 1.7a3.8 3.8 0 004-3.3h-1.8a2 2 0 01-2.1 1.7c-1.6 0-2.7-1.4-2.7-3.5s1-3.4 2.7-3.4a2 2 0 012.1 1.6h2a3.8 3.8 0 00-4.1-3.3c-2.8 0-4.6 2.1-4.6 5.1s1.7 5 4.5 5zm10.2 0c2.8 0 4.6-2 4.6-5s-1.8-5.2-4.6-5.2-4.5 2-4.5 5.1 1.8 5 4.6 5zm0-1.6c-1.8 0-2.6-1.6-2.6-3.5s.8-3.5 2.6-3.5 2.7 1.6 2.7 3.5-.8 3.5-2.6 3.5zm6 1.4h.6c2.1 0 3-1.6 3-4.8l.2-3.4h3.3v8.2h1.8v-9.8h-6.9l-.1 4.3c-.2 3-.5 3.8-1.6 3.8h-.3zm12.7-9.8h-1.9v9.8h2v-4h2.1a4.4 4.4 0 004.5 4.2c2.7 0 4.5-2 4.5-5s-1.8-5.2-4.5-5.2a4.4 4.4 0 00-4.5 4.3h-2.2zm6.7 8.3c-1.9 0-2.7-1.5-2.7-3.4s.8-3.4 2.7-3.4 2.6 1.5 2.6 3.4-.8 3.4-2.6 3.4zm5.6-6.7h3.3v8.2h1.8V59h3.1v-1.6h-8.1zm12.2-1.6h-1.8v9.8h1.8v-4.1h4.3v4h1.8v-9.7h-1.8v4h-4.3zm11.6 10a3 3 0 002.9-1.6v1.3h1.9v-6.4c0-2.9-2.3-3.5-3.8-3.5a4 4 0 00-4 2.5l1.7.4a2.3 2.3 0 012.3-1.3 1.6 1.6 0 011.9 1.7c0 .7-.7.7-2.5 1s-3.8.6-3.8 2.9c0 2 1.4 3 3.3 3zm.4-1.6c-1.1 0-1.9-.5-1.9-1.4s1-1.4 2-1.5a7.4 7.4 0 002.4-.6v1.3a2.3 2.3 0 01-2.6 2.3zm11.7 1.3h1.9v-8h4.3v8h1.8v-9.7h-8zm10.5 3.8h2v-5.3a3 3 0 002.9 1.8c2.4 0 4.1-2 4.1-5.1s-1.8-5-4.1-5a3 3 0 00-2.8 1.6h-.2v-1.5h-1.9zm2-8.6c0-2 .8-3.4 2.5-3.4s2.6 1.5 2.6 3.4-1 3.5-2.6 3.5-2.6-1.5-2.6-3.5zm13.3 5.1c2.8 0 4.6-2 4.6-5s-1.9-5.1-4.6-5.1-4.6 2-4.6 5 1.8 5 4.6 5zm0-1.6c-1.8 0-2.7-1.6-2.7-3.5s.9-3.4 2.7-3.4 2.6 1.6 2.6 3.4-.8 3.5-2.6 3.5zm6.1-1.2c0 1.7 1.7 2.8 3.8 2.8s3.9-1.1 3.9-3a2.1 2.1 0 00-2-2.2v-.1a2.1 2.1 0 001.8-2c0-1.7-1.4-2.8-3.6-2.8s-3.6 1-3.6 2.7h1.9c0-.7.8-1.2 1.8-1.2s1.6.5 1.6 1.3-.5 1.3-1.6 1.3H410V63h1.6c1.1 0 1.8.6 1.8 1.5s-.9 1.4-2 1.4-1.8-.4-1.8-1.2zm13.8 2.8c2.8 0 4.6-2 4.6-5s-1.8-5.1-4.6-5.1-4.6 2-4.6 5 1.9 5 4.6 5zm0-1.6c-1.8 0-2.6-1.6-2.6-3.5s.8-3.4 2.6-3.4 2.6 1.6 2.6 3.4-.8 3.5-2.6 3.5zM428 71h2v-5.3a3 3 0 002.9 1.8c2.4 0 4-2 4-5.1s-1.7-5-4-5A3 3 0 00430 59h-.1v-1.5H428zm1.9-8.6c0-2 .9-3.4 2.6-3.4s2.5 1.5 2.5 3.4-.8 3.5-2.5 3.5-2.6-1.5-2.6-3.5zm9.2 5h2v-10h-2zm1-11.4a1.1 1.1 0 10-1.2-1.2 1.2 1.2 0 001.2 1.2zm7.6 11.5a3.8 3.8 0 004-3.3H450a2.1 2.1 0 01-2.1 1.7c-1.7 0-2.7-1.4-2.7-3.5s1-3.4 2.6-3.4a2.1 2.1 0 012.2 1.7h1.9a3.8 3.8 0 00-4.1-3.3c-2.8 0-4.6 2-4.6 5s1.8 5 4.6 5zm5.4-8.4h3.2v8.2h1.9V59h3.2v-1.6H453zm12.2 1.7v-3.3h-2v9.8h4.4c2.4 0 3.7-1.4 3.7-3.3s-1.3-3.2-3.7-3.2zm0 1.7h2.4a1.7 1.7 0 011.9 1.6c0 .9-.8 1.5-2 1.5h-2.3z"/><path fill="#e0e0e0" d="M268.3 85.5h237.5V87H268.3z"/><path d="M271.2 144.3h5c3 0 4.4-1.5 4.4-3.5a3 3 0 00-2.7-3.3v-.1a2.7 2.7 0 002.2-2.8c0-2-1.3-3.4-4.1-3.4h-4.8zm2-1.7v-4.2h3a2.4 2.4 0 012.5 2.3c0 1-.8 1.9-2.7 1.9zm0-5.7v-4h2.7c1.6 0 2.3.8 2.3 1.9a2.1 2.1 0 01-2.4 2zm9.6 7.4h2v-9.8h-2zm1-11.3a1.1 1.1 0 10-1.3-1.1 1.2 1.2 0 001.3 1.1zm2.5 14.2h1.9v-2.9h6.8v2.9h2v-4.5h-1.6v-8.2h-6.6l-.4 3.7c-.2 2.4-.5 3.7-1.3 4.5h-.8zm2.8-4.5c.7-1 1-2.5 1.1-4.5l.2-2h3.1v6.5zm15.2-.7l-3.1-7.5h-2.4v9.8h1.8v-7.1l3 7.1h1.4l3-7v7h1.9v-9.8h-2.4zm8 2.3h2v-9.8h-2zm1-11.3a1.1 1.1 0 10-1.1-1.1 1.2 1.2 0 001.2 1.1zm5.5 1.5h-1.9v9.8h1.9v-4.1h4.2v4h1.9v-9.7H323v4h-4.3zm10.5 0h-1.9v9.8h2v-4.1h4.2v4h1.8v-9.7h-1.8v4h-4.3zm11.5 10a3 3 0 003-1.6v1.4h1.9v-6.5c0-2.9-2.3-3.5-3.8-3.5a4 4 0 00-4 2.5l1.7.5a2.3 2.3 0 012.3-1.4 1.6 1.6 0 011.9 1.7c0 .7-.7.7-2.5 1s-3.8.6-3.8 2.9c0 2 1.5 3 3.4 3zm.5-1.5c-1.1 0-1.9-.5-1.9-1.5s1-1.4 2-1.5a7.4 7.4 0 002.4-.5v1.2a2.3 2.3 0 01-2.5 2.3zm11.7 1.3h1.9V136h4.2v8.2h2v-9.8h-8zm10.6 3.7h1.9v-5.2a3 3 0 003 1.7c2.3 0 4-1.9 4-5s-1.7-5.1-4-5.1a3 3 0 00-3 1.7v-1.6h-2zm1.8-8.6c0-2 1-3.4 2.6-3.4s2.6 1.5 2.6 3.4-.9 3.5-2.6 3.5-2.6-1.5-2.6-3.5zm13.4 5.1c2.8 0 4.6-2 4.6-5s-1.8-5.1-4.6-5.1-4.6 2-4.6 5 1.8 5 4.6 5zm0-1.6c-1.8 0-2.6-1.6-2.6-3.5s.8-3.4 2.6-3.4 2.6 1.6 2.6 3.4-.8 3.5-2.6 3.5zm6.1-1.2c0 1.7 1.7 2.8 3.9 2.8s3.8-1.1 3.8-3a2.1 2.1 0 00-2-2.2v-.1a2.1 2.1 0 001.8-2c0-1.7-1.4-2.8-3.5-2.8s-3.7 1-3.7 2.7h1.9c0-.7.8-1.2 1.8-1.2s1.7.5 1.7 1.3-.6 1.3-1.6 1.3h-1.6v1.5h1.6c1 0 1.7.6 1.7 1.5s-.9 1.5-2 1.5-1.8-.5-1.8-1.3zm13.8 2.8c2.8 0 4.6-2 4.6-5s-1.8-5.1-4.6-5.1-4.5 2-4.5 5 1.8 5 4.6 5zm0-1.6c-1.8 0-2.6-1.6-2.6-3.5s.8-3.4 2.6-3.4 2.7 1.6 2.7 3.4-.8 3.5-2.6 3.5zm6.7 5.1h2v-5.2a3 3 0 002.9 1.7c2.4 0 4.1-1.9 4.1-5s-1.7-5.1-4.1-5.1a3 3 0 00-2.8 1.7h-.2v-1.6h-1.9zm2-8.6c0-2 .8-3.4 2.5-3.4s2.6 1.5 2.6 3.4-1 3.5-2.6 3.5-2.6-1.5-2.6-3.5zm9.1 5h2v-9.9h-2zm1-11.4a1.1 1.1 0 10-1.2-1.2 1.2 1.2 0 001.2 1.2zm7.7 11.5a3.7 3.7 0 004-3.3h-1.9a2.1 2.1 0 01-2.1 1.7c-1.7 0-2.7-1.4-2.7-3.5s1-3.4 2.7-3.4a2.1 2.1 0 012.1 1.7h1.9a3.8 3.8 0 00-4-3.3c-2.8 0-4.6 2-4.6 5s1.7 5 4.6 5zm5.3-8.4h3.3v8.2h1.8v-8.2h3.2v-1.6h-8.3zm12.3 1.7v-3.3h-2v9.8h4.4c2.4 0 3.7-1.4 3.7-3.3s-1.3-3.2-3.7-3.2zm0 1.7h2.4a1.7 1.7 0 011.9 1.6c0 .9-.8 1.5-2 1.5h-2.4z"/><path fill="#e0e0e0" d="M268.3 187.5h237.5v1.5H268.3z"/><path d="M270.2 274.4h1.9v-3.1h8.8v3.1h1.9v-4.8h-1.5v-11.4h-8.1l-.3 5.5c-.2 3.7-1 5.2-1.9 6h-.8zm3.2-4.8a12.8 12.8 0 001.4-5.9l.2-3.8h4.4v9.7zm15.5 1.9c2.8 0 4.6-2 4.6-5s-1.8-5.2-4.6-5.2-4.6 2-4.6 5.1 1.8 5 4.6 5zm0-1.6c-1.8 0-2.6-1.6-2.6-3.5s.8-3.5 2.6-3.5 2.7 1.6 2.7 3.5-.9 3.5-2.7 3.5zm14.3-12a3.6 3.6 0 01-2.2.3h-1c-3.2 0-4.8 2.3-4.8 6.8v1c0 3.6 1.8 5.5 4.5 5.5s4.5-2 4.5-5-1.7-4.7-4-4.7a3.5 3.5 0 00-3.3 1.8h-.1c.2-2.5 1.1-3.7 3.2-3.8 2 0 3.1 0 4-.8zm-3.4 12c-1.7 0-2.7-1.3-2.7-3.3s1-3.2 2.6-3.2 2.6 1.2 2.6 3.2-1 3.3-2.6 3.3zm6.6 5h2v-5.1a3 3 0 002.9 1.7c2.3 0 4-2 4-5.1s-1.7-5-4-5a3 3 0 00-2.9 1.7h-.1v-1.6h-2zm1.9-8.5c0-2 .9-3.4 2.5-3.4s2.6 1.4 2.6 3.4-.9 3.4-2.6 3.4-2.5-1.4-2.5-3.4zm12 5.1a3 3 0 003-1.6v1.4h2v-6.5c0-2.9-2.3-3.5-3.9-3.5a4 4 0 00-4 2.5l1.7.4a2.3 2.3 0 012.3-1.3 1.6 1.6 0 011.9 1.7c0 .7-.7.7-2.5 1s-3.8.6-3.8 2.9c0 2 1.5 3 3.4 3zm.4-1.5c-1 0-1.8-.5-1.8-1.4s.9-1.4 2-1.6a7.6 7.6 0 002.4-.5v1.3a2.3 2.3 0 01-2.6 2.2zm11.8 1.3h1.9v-8.2h4.2v8.2h1.9v-9.8h-8zM343 275h1.9v-5.2h.1a3 3 0 002.8 1.7c2.4 0 4.1-1.9 4.1-5s-1.7-5.1-4-5.1a3 3 0 00-2.9 1.7h-.2v-1.6h-1.8zm1.8-8.6c0-2 1-3.4 2.6-3.4s2.6 1.5 2.6 3.4-.9 3.5-2.6 3.5-2.6-1.5-2.6-3.5zm13.4 5.1c2.8 0 4.6-2 4.6-5s-1.8-5.1-4.6-5.1-4.6 2-4.6 5 1.9 5 4.6 5zm0-1.6c-1.8 0-2.6-1.6-2.6-3.4s.8-3.5 2.6-3.5 2.7 1.6 2.7 3.5-.9 3.4-2.7 3.4zm6.1-1.2c.1 1.7 1.7 2.8 3.9 2.8s3.8-1.1 3.8-3a2.1 2.1 0 00-2-2.2v-.1a2.1 2.1 0 001.8-2c0-1.7-1.3-2.8-3.5-2.8s-3.7 1-3.7 2.7h2c0-.7.7-1.2 1.8-1.2s1.6.5 1.6 1.3-.5 1.3-1.6 1.3h-1.6v1.5h1.6c1 0 1.8.6 1.8 1.5s-1 1.5-2 1.5-1.9-.5-2-1.3zm13.9 2.8c2.7 0 4.5-2 4.5-5s-1.8-5.1-4.6-5.1-4.5 2-4.5 5 1.8 5 4.6 5zm0-1.6c-1.9 0-2.7-1.6-2.7-3.4s.8-3.5 2.6-3.5 2.7 1.6 2.7 3.5-.8 3.4-2.6 3.4zm6.6 5.1h2v-5.2a3 3 0 003 1.7c2.3 0 4-1.9 4-5s-1.7-5.1-4.1-5.1a3 3 0 00-2.8 1.7h-.2v-1.6H385zm2-8.6c0-2 .8-3.4 2.5-3.4s2.6 1.5 2.6 3.4-1 3.5-2.6 3.5-2.6-1.5-2.6-3.5zm9.2 5h1.9v-9.9h-2zm1-11.4a1.1 1.1 0 10-1.2-1.1 1.2 1.2 0 001.1 1.1zm7.6 11.5a3.7 3.7 0 004-3.3H407a2 2 0 01-2.2 1.7c-1.6 0-2.7-1.3-2.7-3.5s1.1-3.4 2.8-3.4a2.1 2.1 0 012.1 1.7h1.9a3.8 3.8 0 00-4.1-3.3c-2.8 0-4.6 2-4.6 5s1.7 5 4.6 5zm5.4-8.3h3.2v8.1h1.8v-8.1h3.2v-1.7H410zm12.1 1.7v-3.4h-1.8v9.8h4.2c2.4 0 3.8-1.4 3.8-3.2s-1.3-3.2-3.8-3.2zm0 1.6h2.4a1.7 1.7 0 012 1.6c0 1-.9 1.6-2 1.6h-2.4z"/><path fill="#e0e0e0" d="M268.3 340.5h237.5v1.5H268.3z"/><path d="M282 415.4a5.2 5.2 0 00-5.4-4.4c-3.3 0-5.8 2.5-5.8 6.7s2.4 6.8 5.8 6.8a5.2 5.2 0 005.5-4.4h-2a3.3 3.3 0 01-3.4 2.6c-2.3 0-4-1.8-4-5s1.7-4.9 4-4.9a3.3 3.3 0 013.4 2.7zm6.5 9c2.1 0 3.7-1 4-2.6l-1.7-.3a2.2 2.2 0 01-2.3 1.4 2.7 2.7 0 01-2.8-2.9h7v-.7c0-3.5-2-5-4.3-5-2.7 0-4.5 2.2-4.5 5.2s1.7 5 4.6 5zm-2.8-6a2.6 2.6 0 012.7-2.5 2.4 2.4 0 012.4 2.5zm9.1 9.5h2v-5.2a3 3 0 002.9 1.7c2.4 0 4.1-1.9 4.1-5s-1.8-5.1-4.1-5.1a3 3 0 00-2.8 1.7h-.1v-1.6h-2zm2-8.6c0-2 .8-3.4 2.5-3.4s2.6 1.5 2.6 3.4-1 3.5-2.6 3.5-2.6-1.4-2.6-3.4zm13.4 5.1c2.1 0 3.6-1 4-2.6l-1.7-.4a2.2 2.2 0 01-2.3 1.4 2.7 2.7 0 01-2.8-3h7v-.6c0-3.5-2.1-5-4.3-5-2.8 0-4.6 2.2-4.6 5.2s1.8 5 4.7 5zm-2.8-6a2.6 2.6 0 012.7-2.6 2.4 2.4 0 012.4 2.6zm8.2 8.6h1.8v-2.8h6.9v2.8h1.9v-4.5h-1.5v-8.1H318l-.3 3.6c-.2 2.5-.5 3.8-1.3 4.5h-.8zm2.8-4.5c.7-.9.9-2.4 1-4.5l.3-2h3v6.6zm11.5-8.1H328v9.8h1.9v-4h4.3v4h1.8v-9.7h-1.9v4H330zm14.5 9.8h1.8v-9.8h-4.1c-2.3 0-3.7 1.1-3.7 3a2.7 2.7 0 001.9 2.7l-2.3 4h2l2.1-3.8h2.4zm0-5.4H342c-1.1 0-1.7-.6-1.7-1.4s.7-1.4 1.8-1.4h2.3zm9.1 5.4h1.9V416h4.3v8.2h1.8v-9.8h-8zm10.6 3.8h2v-5.2a3 3 0 002.9 1.7c2.3 0 4-1.9 4-5s-1.7-5.1-4-5.1a3 3 0 00-2.9 1.7h-.1v-1.6h-2zm1.9-8.6c0-2 .9-3.4 2.5-3.4s2.6 1.5 2.6 3.4-.9 3.5-2.6 3.5-2.5-1.5-2.5-3.5zm13.3 5.1c2.8 0 4.6-2 4.6-5s-1.8-5.1-4.6-5.1-4.5 2-4.5 5 1.8 5 4.5 5zm0-1.6c-1.8 0-2.6-1.6-2.6-3.4s.8-3.5 2.6-3.5 2.7 1.6 2.7 3.5-.9 3.4-2.6 3.4zm6.2-1.2c0 1.7 1.6 2.8 3.8 2.8s3.8-1.1 3.8-3a2.1 2.1 0 00-2-2.2v-.1a2.1 2.1 0 001.8-2c0-1.7-1.4-2.8-3.6-2.8s-3.6 1-3.6 2.7h2c0-.7.8-1.2 1.8-1.2s1.6.5 1.6 1.3-.5 1.3-1.6 1.3H388v1.5h1.6c1.1 0 1.8.6 1.8 1.5s-.9 1.5-2 1.5-1.8-.5-1.9-1.3zm13.8 2.8c2.7 0 4.5-2 4.5-5s-1.8-5.1-4.5-5.1-4.6 2-4.6 5 1.8 5 4.6 5zm0-1.6c-1.9 0-2.7-1.6-2.7-3.4s.8-3.5 2.7-3.5 2.6 1.6 2.6 3.5-.8 3.4-2.6 3.4zm6.7 5.1h1.9v-5.2a3 3 0 003 1.7c2.3 0 4-1.9 4-5s-1.7-5.1-4-5.1a3 3 0 00-3 1.7v-1.6h-2zm1.8-8.6c0-2 1-3.4 2.6-3.4s2.6 1.5 2.6 3.4-.9 3.5-2.6 3.5-2.5-1.5-2.5-3.5zm9.3 5h1.9v-9.9h-2zm1-11.4a1.1 1.1 0 100-2.3 1.1 1.1 0 100 2.3zm7.6 11.5a3.7 3.7 0 004-3.3H428a2 2 0 01-2.2 1.7c-1.6 0-2.6-1.4-2.6-3.5s1-3.4 2.6-3.4a2 2 0 012.2 1.7h1.9a3.8 3.8 0 00-4.1-3.3c-2.8 0-4.6 2-4.6 5s1.8 5 4.6 5zm5.4-8.4h3.2v8.2h1.9V416h3.2v-1.6H431zm12.2 1.7v-3.3h-2v9.8h4.3c2.4 0 3.8-1.4 3.8-3.3s-1.4-3.2-3.8-3.2zm0 1.7h2.4a1.7 1.7 0 011.9 1.6c0 .9-.8 1.5-2 1.5h-2.3z"/><path fill="#e0e0e0" d="M268.3 493.5h237.5v1.5H268.3z"/><path d="M271.2 577.3h2v-5.7h6.5v5.7h2v-13.1h-2v5.7h-6.5v-5.7h-2zm17.4.2c2.2 0 3.7-1 4.1-2.7l-1.8-.3a2.2 2.2 0 01-2.3 1.4 2.7 2.7 0 01-2.7-3h7v-.6c0-3.6-2.2-5-4.4-5-2.7 0-4.5 2.1-4.5 5.1s1.8 5 4.6 5zm-2.7-6a2.6 2.6 0 012.6-2.6 2.4 2.4 0 012.5 2.6zm8.1 8.6h1.9v-2.8h6.9v2.8h1.8v-4.5h-1.5v-8.2h-6.7l-.3 3.7c-.2 2.5-.5 3.8-1.3 4.5h-.8zm2.8-4.5c.7-1 1-2.4 1.1-4.5l.2-2h3.1v6.5zm13.8 1.9c2.8 0 4.6-2 4.6-5.1s-1.8-5.1-4.6-5.1-4.6 2-4.6 5 1.8 5.2 4.6 5.2zm0-1.7c-1.8 0-2.6-1.5-2.6-3.4s.8-3.5 2.6-3.5 2.6 1.6 2.6 3.5-.8 3.5-2.6 3.5zm10.8 1.7a3.7 3.7 0 004-3.4h-1.8a2.1 2.1 0 01-2.2 1.7c-1.6 0-2.6-1.3-2.6-3.5s1-3.4 2.6-3.4a2.1 2.1 0 012.2 1.7h1.8a3.8 3.8 0 00-4-3.3c-2.8 0-4.6 2-4.6 5s1.8 5.2 4.6 5.2zm5.4-8.4h3.2v8.2h1.9V569h3.2v-1.7h-8.4zm12.7 8.4a3 3 0 002.9-1.6v1.4h2v-6.6c0-2.8-2.3-3.4-3.9-3.4a4 4 0 00-4 2.5l1.8.4a2.3 2.3 0 012.3-1.3 1.6 1.6 0 011.9 1.7c0 .7-.8.7-2.5.9s-3.8.7-3.8 3c0 2 1.4 3 3.3 3zm.4-1.6c-1 0-1.9-.4-1.9-1.4s1-1.4 2-1.5a7.6 7.6 0 002.4-.6v1.3a2.3 2.3 0 01-2.5 2.3zm5.8-6.8h3.2v8.2h1.9V569h3.1v-1.7h-8.2zm12.1-1.7H356v9.9h1.8v-4.1h4.3v4h1.9v-9.7H362v4h-4.3zm14.6 9.9h1.8v-9.9H370c-2.2 0-3.6 1.2-3.6 3a2.7 2.7 0 001.8 2.7l-2.3 4.1h2l2.2-3.8h2.3zm0-5.4h-2.5c-1 0-1.7-.6-1.7-1.4s.7-1.4 1.8-1.4h2.4zm9 5.4h2V569h4.2v8.2h1.9v-9.9h-8zM392 581h2v-5.2a3 3 0 003 1.7c2.3 0 4-1.9 4-5s-1.7-5.1-4.1-5.1a3 3 0 00-2.8 1.7h-.2v-1.6H392zm2-8.6c0-2 .8-3.4 2.5-3.4s2.6 1.5 2.6 3.4-1 3.5-2.6 3.5-2.6-1.5-2.6-3.5zm13.3 5.1c2.8 0 4.6-2 4.6-5s-1.8-5.1-4.6-5.1-4.6 2-4.6 5 1.8 5 4.6 5zm0-1.6c-1.8 0-2.7-1.6-2.7-3.5s.9-3.4 2.7-3.4 2.6 1.6 2.6 3.4-.8 3.5-2.6 3.5zm6.1-1.2c0 1.7 1.7 2.8 3.9 2.8s3.8-1.1 3.8-3a2.1 2.1 0 00-2-2.2v-.1a2.1 2.1 0 001.8-2c0-1.7-1.4-2.8-3.6-2.8s-3.6 1-3.6 2.7h1.9c0-.7.8-1.2 1.8-1.2s1.7.5 1.7 1.3-.6 1.3-1.7 1.3H416v1.5h1.5c1.1 0 1.8.6 1.8 1.5s-.9 1.5-2 1.5-1.8-.5-1.8-1.3zm13.8 2.8c2.8 0 4.6-2 4.6-5s-1.8-5.1-4.6-5.1-4.6 2-4.6 5 1.8 5 4.6 5zm0-1.6c-1.8 0-2.6-1.6-2.6-3.5s.8-3.4 2.6-3.4 2.7 1.6 2.7 3.4-.9 3.5-2.7 3.5zm6.7 5.1h2v-5.2a3 3 0 002.9 1.7c2.4 0 4-1.9 4-5s-1.7-5.1-4-5.1a3 3 0 00-2.8 1.7h-.2v-1.6h-1.9zm1.9-8.6c0-2 .9-3.4 2.6-3.4s2.6 1.5 2.6 3.4-1 3.5-2.6 3.5-2.6-1.5-2.6-3.5zm9.2 5h2v-9.9h-2zm1-11.4a1.1 1.1 0 10-1.2-1.2 1.2 1.2 0 001.2 1.2zm7.7 11.5a3.7 3.7 0 004-3.3h-1.9a2 2 0 01-2.1 1.7c-1.7 0-2.7-1.4-2.7-3.5s1-3.4 2.7-3.4a2 2 0 012.1 1.7h1.9a3.8 3.8 0 00-4-3.3c-2.8 0-4.6 2-4.6 5s1.7 5 4.6 5zm5.3-8.4h3.2v8.2h1.9v-8.2h3.2v-1.6H459zm12.2 1.8v-3.4h-1.9v9.8h4.3c2.4 0 3.7-1.4 3.7-3.2s-1.3-3.2-3.7-3.2zm0 1.6h2.4a1.7 1.7 0 011.9 1.6c0 1-.8 1.6-1.9 1.6h-2.4z"/><path fill="#e0e0e0" d="M268.3 646.5h237.5v1.5H268.3z"/><path d="M271.2 679.3h2v-5.7h6.5v5.7h2v-13.1h-2v5.7h-6.5v-5.7h-2zm17.4.2c2.2 0 3.7-1 4.1-2.7l-1.8-.3a2.2 2.2 0 01-2.3 1.4 2.7 2.7 0 01-2.7-3h7v-.6c0-3.6-2.2-5-4.4-5-2.7 0-4.5 2.1-4.5 5.1s1.8 5 4.6 5zm-2.7-6a2.6 2.6 0 012.6-2.6 2.4 2.4 0 012.5 2.6zm9 5.8h2V671h4.2v8.2h1.9v-9.9h-8zm10.6 3.7h2v-5.2a3 3 0 002.9 1.7c2.4 0 4-1.9 4-5s-1.7-5.1-4-5.1a3 3 0 00-2.8 1.7h-.2v-1.6h-1.9zm1.9-8.6c0-2 .9-3.4 2.6-3.4s2.6 1.5 2.6 3.4-1 3.5-2.6 3.5-2.6-1.5-2.6-3.5zm11.1 2.2v-7.1h-1.9v9.8h2.1l4.4-7.1v7.1h1.8v-9.8h-2zm10.8 0v-7.1h-1.8v9.8h2l4.3-7.1v7.1h2v-9.8h-2.1zm3.5-10.4a1.3 1.3 0 01-2.5 0h-1.6c0 1.4 1.1 2.4 2.9 2.4s2.8-1 2.8-2.4zm7.4 3.3h-2v9.8h2v-4.1h4.2v4h1.9v-9.7h-1.9v4h-4.2zm14.5 9.8h1.8v-9.8h-4.2c-2.2 0-3.6 1.2-3.6 3a2.7 2.7 0 001.8 2.7l-2.3 4.1h2l2.1-3.8h2.4zm0-5.4h-2.5c-1 0-1.6-.5-1.6-1.4s.6-1.4 1.7-1.4h2.4zm3.1-2.7h3.2v8.1h1.9v-8.1h3.2v-1.7h-8.3zm12.2-1.7H368v9.8h1.9v-4.1h4.2v4h2v-9.7h-2v4H370zm11.5 10a3 3 0 003-1.6v1.4h1.9v-6.5c0-2.9-2.3-3.5-3.8-3.5a4 4 0 00-4 2.5l1.7.5a2.3 2.3 0 012.3-1.4 1.6 1.6 0 011.8 1.7c0 .7-.7.7-2.4 1s-3.8.6-3.8 2.9c0 2 1.5 3 3.3 3zm.4-1.5c-1 0-1.8-.5-1.8-1.5s.9-1.4 2-1.5a7.6 7.6 0 002.3-.5v1.2a2.3 2.3 0 01-2.5 2.3zm11.8 1.3h1.8V671h4.3v8.2h1.9v-9.8h-8zm10.5 3.7h2v-5.2a3 3 0 003 1.7c2.3 0 4-1.9 4-5s-1.7-5.1-4.1-5.1a3 3 0 00-2.8 1.7h-.2v-1.6h-1.9zm2-8.6c0-2 .8-3.4 2.5-3.4s2.6 1.5 2.6 3.4-1 3.5-2.6 3.5-2.6-1.5-2.6-3.5zm13.3 5.1c2.8 0 4.6-2 4.6-5s-1.8-5.1-4.6-5.1-4.6 2-4.6 5 1.9 5 4.6 5zm0-1.6c-1.8 0-2.7-1.6-2.7-3.5s.9-3.4 2.7-3.4 2.6 1.6 2.6 3.4-.8 3.5-2.6 3.5zm6.1-1.2c0 1.7 1.7 2.8 3.9 2.8s3.8-1.1 3.8-3a2.1 2.1 0 00-2-2.2v-.1a2.1 2.1 0 001.8-2c0-1.7-1.4-2.8-3.6-2.8s-3.6 1-3.6 2.7h1.9c0-.7.7-1.2 1.8-1.2s1.6.5 1.6 1.3-.5 1.3-1.6 1.3H428v1.5h1.6c1 0 1.8.6 1.8 1.5s-.9 1.5-2 1.5-1.8-.5-1.9-1.3zm13.8 2.8c2.8 0 4.6-2 4.6-5s-1.8-5.1-4.6-5.1-4.6 2-4.6 5 1.8 5 4.6 5zm0-1.6c-1.8 0-2.6-1.6-2.6-3.5s.8-3.4 2.6-3.4 2.7 1.6 2.7 3.4-.9 3.5-2.7 3.5zm6.7 5.1h2v-5.2a3 3 0 002.9 1.7c2.4 0 4-1.9 4-5s-1.7-5.1-4-5.1a3 3 0 00-2.8 1.7h-.2v-1.6H446zm1.9-8.6c0-2 .9-3.4 2.6-3.4s2.6 1.5 2.6 3.4-1 3.5-2.6 3.5-2.6-1.5-2.6-3.5zm9.2 5h2v-9.9h-2zm1-11.4a1.1 1.1 0 10-1.2-1.2 1.2 1.2 0 001.2 1.2zm7.7 11.5a3.7 3.7 0 004-3.3H468a2 2 0 01-2.1 1.7c-1.6 0-2.7-1.4-2.7-3.5s1-3.4 2.7-3.4a2.1 2.1 0 012.1 1.7h1.9a3.8 3.8 0 00-4-3.3c-2.8 0-4.6 2-4.6 5s1.7 5 4.6 5zm5.3-8.4h3.2v8.2h1.9v-8.2h3.2v-1.6h-8.3zm12.2 1.8v-3.4h-1.9v9.8h4.3c2.3 0 3.7-1.4 3.7-3.2s-1.3-3.2-3.7-3.2zm0 1.6h2.4a1.7 1.7 0 011.8 1.6c0 1-.8 1.6-1.9 1.6h-2.4zM10.2 2.6H4.5v2.5h2a5.4 5.4 0 013.7 1.1 3.6 3.6 0 011.3 3 3.8 3.8 0 01-1.3 3 5.2 5.2 0 01-3.5 1H1.9V.6h8.3zM4.5 7.2v4h2.1a2.3 2.3 0 001.6-.6 2 2 0 00.6-1.5 1.7 1.7 0 00-.5-1.4 2.4 2.4 0 00-1.6-.5zm14 6a2.7 2.7 0 01-.2-.8 3.1 3.1 0 01-2.4 1 3.4 3.4 0 01-2.3-.8 2.6 2.6 0 01-1-2 2.7 2.7 0 011.2-2.3 5.6 5.6 0 013.2-.8h1.2v-.6a1.6 1.6 0 00-.4-1 1.3 1.3 0 00-1-.4 1.6 1.6 0 00-1 .3 1 1 0 00-.4.8h-2.6a2.6 2.6 0 01.5-1.5A3.3 3.3 0 0114.8 4a5.2 5.2 0 012.2-.4 4.1 4.1 0 012.7.9A3 3 0 0120.7 7v4.1a4.5 4.5 0 00.4 2v.2zm-2-1.7a2.3 2.3 0 001-.2 1.7 1.7 0 00.6-.7V9h-1c-1.2 0-2 .4-2 1.3v.2a1 1 0 00.4.8 1.3 1.3 0 001 .2zm14.4-7.7v9.5h-2.5V5.8H26l-.1 3a6.7 6.7 0 01-1 3.4 2.7 2.7 0 01-2.2 1h-.9v-2h.3a1.2 1.2 0 001-.8 8.3 8.3 0 00.4-2.6l.2-4zm7.7 0h2.6v9.5h-2.6V7.4l-3.2 5.9H33V3.8h2.5v5.8zM174.8 7.2a7.8 7.8 0 01-.7 3.3 5 5 0 01-1.9 2.2 5.3 5.3 0 01-2.8.8 5.3 5.3 0 01-2.9-.8 5 5 0 01-1.9-2.2 7.6 7.6 0 01-.7-3.3v-.6a7.7 7.7 0 01.7-3.3 5.1 5.1 0 012-2.2 5.6 5.6 0 015.6 0 5 5 0 012 2.2 7.7 7.7 0 01.6 3.3zm-2.7-.6a5.4 5.4 0 00-.7-3 2.4 2.4 0 00-2-1 2.3 2.3 0 00-2 1 5.3 5.3 0 00-.8 3V7a5.4 5.4 0 00.8 3 2.3 2.3 0 002 1.1 2.3 2.3 0 002-1 5.4 5.4 0 00.7-3zm4.5-2.8h2.5v7.4h3.2V3.8h2.5v7.5h1.5L186 16h-2.3v-2.8h-7.2zm13.6 9.5h-2.5V3.8h2.5zm-2.7-12a1.3 1.3 0 01.4-1 1.4 1.4 0 011-.3 1.4 1.4 0 011 .4 1.2 1.2 0 01.4 1 1.2 1.2 0 01-.4.9 1.4 1.4 0 01-1 .3 1.5 1.5 0 01-1-.3 1.3 1.3 0 01-.4-1zm13 12H198V9.6h-3.2v3.7h-2.5V3.8h2.5v3.8h3.2V3.8h2.6zm5.8-3.5h-1v3.5h-2.6V3.8h2.6v3.5h.9l2-3.5h3.2l-3 4.5 3.3 5h-3.4zm11.9 3.5a3 3 0 01-.3-.9 3 3 0 01-2.4 1 3.4 3.4 0 01-2.3-.8 2.6 2.6 0 01-1-2 2.7 2.7 0 011.2-2.3 5.6 5.6 0 013.3-.8h1.1v-.6a1.6 1.6 0 00-.3-1 1.4 1.4 0 00-1-.4 1.6 1.6 0 00-1 .3 1 1 0 00-.4.8h-2.6a2.6 2.6 0 01.5-1.5 3.3 3.3 0 011.4-1.1 5.2 5.2 0 012.1-.4 4.2 4.2 0 012.8.9 3 3 0 011 2.5v4a4.5 4.5 0 00.4 2.1v.2zm-2.1-1.8a2.2 2.2 0 001-.2 1.7 1.7 0 00.7-.7V9h-1c-1.2 0-2 .4-2 1.3v.2a1 1 0 00.4.8 1.3 1.3 0 00.9.2zM275.5 4.9l2.4-4.4h3l-3.7 6.3 3.8 6.5h-3.1l-2.4-4.5-2.5 4.5h-3l3.8-6.5L270 .5h3zm12.2 8.4a3 3 0 01-.3-.9 3 3 0 01-2.4 1 3.4 3.4 0 01-2.3-.8 2.6 2.6 0 01-1-2 2.7 2.7 0 011.2-2.3 5.6 5.6 0 013.3-.8h1.1v-.6a1.6 1.6 0 00-.3-1 1.4 1.4 0 00-1-.4 1.6 1.6 0 00-1 .3 1 1 0 00-.4.8H282a2.6 2.6 0 01.5-1.5A3.3 3.3 0 01284 4a5.2 5.2 0 012.2-.4 4.1 4.1 0 012.7.9 3 3 0 011 2.5v4a4.4 4.4 0 00.4 2.1v.2zm-2.1-1.8a2.3 2.3 0 001-.2 1.7 1.7 0 00.7-.7V9h-1c-1.2 0-2 .4-2 1.3v.2a1 1 0 00.4.8 1.3 1.3 0 00.9.2zm14.8-2.9a5.7 5.7 0 01-1 3.5 3.2 3.2 0 01-2.7 1.4 3 3 0 01-2.3-1V17h-2.6V3.8h2.4v.9a3 3 0 012.5-1.1 3.2 3.2 0 012.7 1.3 5.8 5.8 0 011 3.6zm-2.6-.2a3.7 3.7 0 00-.4-2 1.5 1.5 0 00-1.4-.7 1.7 1.7 0 00-1.6 1v3.8a1.7 1.7 0 001.6 1c1.2 0 1.8-1 1.8-3zm9.7 4.9a3 3 0 01-.3-.9 3.1 3.1 0 01-2.4 1 3.4 3.4 0 01-2.3-.8 2.6 2.6 0 01-1-2 2.7 2.7 0 011.3-2.3 5.6 5.6 0 013.2-.8h1.2v-.6a1.6 1.6 0 00-.4-1 1.3 1.3 0 00-1-.4 1.5 1.5 0 00-1 .3 1 1 0 00-.4.8h-2.5a2.5 2.5 0 01.5-1.5 3.3 3.3 0 011.4-1.1 5.2 5.2 0 012-.4 4.1 4.1 0 012.8.9 3 3 0 011 2.5v4a4.5 4.5 0 00.4 2.1v.2zm-2.1-1.8a2.3 2.3 0 001-.2 1.6 1.6 0 00.7-.7V9h-1c-1.3 0-2 .4-2 1.3v.2a1 1 0 00.4.8 1.3 1.3 0 00.9.2zm10-1.7h-1v3.5h-2.6V3.8h2.5v3.5h.9l2-3.5h3.3l-3.1 4.5 3.4 5h-3.4zm14.3-4h-3v7.4H324V5.8h-3v-2h8.5zm5 7.7a4.7 4.7 0 01-3.4-1.3 4.6 4.6 0 01-1.3-3.4v-.3a5.7 5.7 0 01.6-2.5 4 4 0 011.5-1.7 4.4 4.4 0 012.4-.7 3.9 3.9 0 013 1.3 5 5 0 011.2 3.5v1h-6.1a2.4 2.4 0 00.7 1.5 2.3 2.3 0 001.6.5 2.8 2.8 0 002.3-1l1.2 1.3A3.9 3.9 0 01337 13a5.1 5.1 0 01-2.1.5zm-.2-7.8a1.6 1.6 0 00-1.3.5 2.5 2.5 0 00-.6 1.4h3.6v-.2a1.8 1.8 0 00-.5-1.3 1.6 1.6 0 00-1.3-.4zm14.2 3a5.8 5.8 0 01-1 3.5 3.2 3.2 0 01-2.7 1.3 3 3 0 01-2.3-1V17H340V3.8h2.4v.9a3 3 0 012.5-1.1 3.2 3.2 0 012.7 1.3 5.8 5.8 0 011 3.6zm-2.6-.2a3.7 3.7 0 00-.4-2 1.5 1.5 0 00-1.4-.7 1.6 1.6 0 00-1.6.9v3.9a1.7 1.7 0 001.6.9c1.2 0 1.8-1 1.8-3zm9.9-4.7h2.5v9.5H356V7.4l-3.2 5.9h-2.6V3.8h2.6v5.8zm8.4 7.7a1.6 1.6 0 001.2-.4 1.4 1.4 0 00.4-1h2.4a3.3 3.3 0 01-.5 1.7 3.6 3.6 0 01-1.4 1.2 4.5 4.5 0 01-2 .4 4.1 4.1 0 01-3.3-1.3 5.2 5.2 0 01-1.1-3.5v-.2a5.1 5.1 0 011.1-3.5 4.1 4.1 0 013.2-1.3 4 4 0 012.9 1 3.6 3.6 0 011 2.7H366a1.7 1.7 0 00-.5-1.2 1.5 1.5 0 00-1.1-.5 1.6 1.6 0 00-1.4.7 3.9 3.9 0 00-.4 2v.3a3.9 3.9 0 00.4 2.2 1.6 1.6 0 001.4.6zm13.4-5.7h-3.1v7.5h-2.5V5.8h-3v-2h8.6zm7-2h2.5v9.5h-2.6V7.4l-3.1 5.9H379V3.8h2.6v5.8zm8.1 6h-1v3.5h-2.5V3.8h2.5v3.5h1l2-3.5h3.2l-3 4.5 3.3 5H395zm12 3.5a2.7 2.7 0 01-.3-.8 3.1 3.1 0 01-2.4 1 3.4 3.4 0 01-2.3-.8 2.6 2.6 0 01-1-2 2.7 2.7 0 011.2-2.4 5.6 5.6 0 013.2-.8h1.2V7a1.6 1.6 0 00-.3-1 1.4 1.4 0 00-1-.4 1.6 1.6 0 00-1 .3 1 1 0 00-.4.8h-2.6a2.6 2.6 0 01.6-1.5 3.3 3.3 0 011.4-1.1 5.2 5.2 0 012-.4 4.1 4.1 0 012.8.9 3 3 0 011 2.5v4a4.4 4.4 0 00.4 2.1v.2zm-2.1-1.8a2.3 2.3 0 001-.2 1.7 1.7 0 00.6-.7V9h-.9c-1.3 0-2 .4-2 1.3v.2a1 1 0 00.3.8 1.3 1.3 0 001 .2z"/><path d="M163.8 86.3h58M163.8 137.3h58M163.8 188.3h58M163.8 239.3h58M163.8 290.3h58M163.8 341.3h58M163.8 392.3h58M163.8 443.3h58M163.8 494.3h58M163.8 545.3h58M163.8 596.3h58M163.8 647.3h58" fill="none" stroke="#fff" stroke-linecap="square" stroke-linejoin="round" stroke-width="1.5"/></svg>