<svg xmlns="http://www.w3.org/2000/svg" width="505" height="504" viewBox="0 0 505 504"><path d="M163 43.3a8 8 0 018-8h42a8 8 0 018 8v28h-58z" fill="#19aa52"/><path d="M183.6 59.4l.9-2.7h4.2l.8 2.7h2.7l-4-11.7H185l-4 11.7zm1.5-4.6l1.4-4.4h.1l1.4 4.4zm11.9 2.8h2v-3h3v-2h-3v-3h-2v3h-3v2h3z" fill="#fff"/><path fill="#7dc374" d="M163 71.4h58v36h-58z"/><path d="M189 95.4l.9-2.6h4.2l.8 2.6h2.7l-4-11.6h-3.2l-4 11.6zm1.5-4.6l1.5-4.4 1.4 4.4z" fill="#fff"/><path fill="#abd59e" d="M163 107.4h58v36h-58z"/><path d="M185.3 131.5l.8-2.7h4.3l.8 2.7h2.7l-4-11.7h-3.2l-4 11.7zm1.5-4.6l1.4-4.4 1.5 4.4zm13.8-2.2h-5.3v1.9h5.3z" fill="#fff"/><path fill="#1791d2" d="M163 143.5h58v36h-58z"/><path d="M182.3 167.5h5c2.6 0 4-1.3 4-3.2a2.7 2.7 0 00-2.6-2.8v-.1a2.5 2.5 0 002.2-2.6c0-1.7-1.4-3-4-3h-4.6zm2.4-2v-3h2.1a1.7 1.7 0 012 1.4v.2c0 .8-.7 1.4-2 1.4zm0-4.7v-3h2c1 0 1.6.6 1.6 1.5a1.6 1.6 0 01-1.7 1.4zm11.6 5h2v-3h3v-2h-3v-3h-2v3h-3v2h3z" fill="#fff"/><path fill="#44b5e5" d="M163 179.5h58v36h-58z"/><path d="M187.7 203.6h5c2.6 0 4-1.4 4-3.3a2.7 2.7 0 00-2.5-2.8 2.5 2.5 0 002-2.6c0-1.7-1.2-3-3.8-3h-4.7zm2.5-2v-3.1h2a1.7 1.7 0 012 1.4 1.4 1.4 0 010 .2c0 .9-.7 1.5-2 1.5zm0-4.8v-2.9h1.9c1 0 1.7.6 1.7 1.4a1.6 1.6 0 01-1.8 1.5z" fill="#fff"/><path fill="#93ceef" d="M163 215.6h58v36h-58z"/><path d="M184 239.6h5c2.6 0 4-1.3 4-3.2a2.7 2.7 0 00-2.6-2.8v-.1a2.5 2.5 0 002.1-2.5c0-1.8-1.3-3-3.8-3H184zm2.5-2v-3h2a1.7 1.7 0 012 1.4v.2c0 .8-.7 1.4-2 1.4zm0-4.7V230h1.8c1.1 0 1.7.6 1.7 1.4a1.5 1.5 0 01-1.6 1.5h-.1zm13.5 0h-5.3v1.9h5.3z"/><path fill="#fee533" d="M163 251.6h58v36h-58z"/><path d="M191.8 268.1a4.7 4.7 0 00-5-4.2c-3 0-5.4 2.1-5.4 6s2.3 6 5.4 6a4.8 4.8 0 005-4.2h-2.5a2.4 2.4 0 01-2.5 2c-1.8 0-3-1.3-3-3.8s1.2-3.8 3-3.8a2.4 2.4 0 012.5 2zm5.2 5.8h2v-3h3v-2h-3v-3h-2v3h-3v2h3z"/><path fill="#fef25e" d="M163 287.7h58v36h-58z"/><path d="M197.3 304.1a4.7 4.7 0 00-5-4.2c-3.1 0-5.5 2.2-5.5 6s2.3 6 5.5 6a4.8 4.8 0 005-4.1h-2.5a2.4 2.4 0 01-2.6 2c-1.7 0-3-1.3-3-3.8s1.2-3.8 3-3.8a2.4 2.4 0 012.5 2z"/><path fill="#fff8b2" d="M163 323.7h58v36h-58z"/><path d="M193.5 340.2a4.7 4.7 0 00-5-4.2c-3 0-5.4 2.1-5.4 6s2.3 6 5.4 6a4.8 4.8 0 005-4.2H191a2.4 2.4 0 01-2.5 2c-1.8 0-3-1.3-3-3.8s1.2-3.8 3-3.8a2.4 2.4 0 012.5 2zm7.2.8h-5.3v2h5.3z"/><path fill="#fcbc4d" d="M163 359.8h58v36h-58z"/><path d="M185.9 383.8c3.5 0 5.7-2.2 5.7-5.8s-2.2-5.8-5.7-5.8h-4.2v11.6zm-1.7-2v-7.5h1.6c2.2 0 3.3 1.1 3.3 3.7s-1.1 3.7-3.3 3.7zm12.6.2h2v-3h3v-2h-3v-3h-2v3h-3v2h3z"/><path fill="#f2793d" d="M163 395.9h58v36h-58z"/><path d="M191.3 419.9c3.6 0 5.7-2.2 5.7-5.9s-2.1-5.8-5.7-5.8h-4.1V420zm-1.7-2.1v-7.5h1.6c2.2 0 3.4 1.1 3.4 3.7s-1.2 3.8-3.4 3.8z" fill="#fff"/><path fill="#ed4243" d="M163 431.9h58v36h-58z"/><path d="M187.6 456c3.5 0 5.7-2.3 5.7-6s-2.2-5.7-5.7-5.7h-4.2v11.6zm-1.7-2.2v-7.4h1.6c2.1 0 3.3 1.1 3.3 3.7s-1.1 3.7-3.3 3.7zm14.6-4.7h-5.3v2h5.3z" fill="#fff"/><path d="M163 468h58v28a8 8 0 01-8 8h-42a8 8 0 01-8-8z" fill="#403339"/><path d="M188.3 492h2.5v-4.8h4.7v-2h-4.7v-2.8h5.2v-2h-7.7z" fill="#fff"/><path d="M5 47.5a3.8 3.8 0 00-4 3.7v.3a3.7 3.7 0 003.5 3.9h.1a3.3 3.3 0 003-1.6c0 2.7-1 4.2-2.7 4.2a2 2 0 01-2-1.6H1a3.6 3.6 0 003.7 3.2c2.8 0 4.4-2.4 4.4-6.4 0-4.3-2.1-5.6-4.2-5.7zM5 49a2.4 2.4 0 012.4 2.4A2.4 2.4 0 015 54a2.3 2.3 0 01-2.3-2.4A2.4 2.4 0 015 49zm10.1 10.5a3.8 3.8 0 004-3.6v-.3a3.7 3.7 0 00-3.4-3.9h-.2a3.2 3.2 0 00-2.2.8l.3-3.3h5v-1.5h-6.4l-.7 5.9 1.6.2a3.1 3.1 0 012-.6 2.4 2.4 0 012.3 2.3v.1a2.3 2.3 0 01-2.2 2.4 2 2 0 01-2.2-1.7h-1.7a3.5 3.5 0 003.8 3.2zm15.5-6.7h-5.2v1.5h5.2zm10.9-5h-1.7l-3 1.8v1.7l2.9-1.8v9.9h1.8zm7.2 11.8c2.7 0 4.3-2.2 4.3-6s-1.6-6-4.3-6-4.3 2.2-4.3 6 1.6 6 4.3 6zm0-1.6c-1.6 0-2.5-1.5-2.5-4.5s1-4.5 2.5-4.5 2.5 1.6 2.5 4.5-1 4.5-2.5 4.5zM59 59.6c2.7 0 4.3-2.2 4.3-6s-1.6-6-4.3-6-4.3 2.2-4.3 6 1.6 6 4.3 6zm0-1.6c-1.6 0-2.5-1.6-2.5-4.5s1-4.5 2.5-4.5 2.5 1.6 2.5 4.5S60.6 58 59 58z"/><path fill="#e0e0e0" d="M0 70.6h132.5v1.5H0z"/><path d="M5 83.6a3.8 3.8 0 00-4 3.7v.3a3.7 3.7 0 003.5 3.8h.1a3.3 3.3 0 003-1.6c0 2.7-1 4.3-2.7 4.3a2 2 0 01-2-1.7H1a3.6 3.6 0 003.7 3.2c2.8 0 4.4-2.3 4.4-6.4 0-4.3-2.1-5.6-4.2-5.6zm0 1.5a2.4 2.4 0 012.4 2.4A2.4 2.4 0 015 90a2.3 2.3 0 01-2.3-2.3A2.4 2.4 0 015 85zm10.3 10.5c2.7 0 4.3-2.2 4.3-6s-1.6-6-4.3-6-4.2 2.2-4.2 6 1.6 6 4.2 6zm0-1.5c-1.5 0-2.5-1.6-2.5-4.5s1-4.5 2.5-4.5 2.6 1.6 2.6 4.5-1 4.5-2.6 4.5zM31 88.9h-5.1v1.4H31zm10.4-5.3a3.8 3.8 0 00-4 3.7v.3a3.7 3.7 0 003.5 3.8h.1a3.3 3.3 0 002.9-1.6h.1c0 2.7-1 4.2-2.7 4.2a2 2 0 01-2-1.7h-1.9a3.6 3.6 0 003.8 3.2c2.7 0 4.4-2.3 4.4-6.4 0-4.2-2.2-5.5-4.2-5.5zm0 1.5a2.4 2.4 0 010 4.8 2.3 2.3 0 01-2.4-2.3 2.4 2.4 0 012.3-2.5zm6 8h5.5v2.3h1.7v-2.3H56v-1.4h-1.5v-8h-2.1l-5 8zm5.6-1.4h-3.7v-.1l3.6-5.7h.1z"/><path fill="#e0e0e0" d="M0 106.7h132.5v1.5H0z"/><path d="M5 131.6c2.5 0 4.2-1.3 4.2-3.2a3 3 0 00-2.3-3 2.6 2.6 0 001.9-2.6c0-1.8-1.6-3.1-3.8-3.1s-3.7 1.3-3.7 3a2.6 2.6 0 002 2.7 3 3 0 00-2.4 3c0 1.8 1.7 3.2 4.1 3.2zm0-1.4c-1.4 0-2.3-.8-2.3-2a2.1 2.1 0 012.2-2H5a2.2 2.2 0 012.4 2c0 1.2-1 2-2.4 2zm0-5.4a1.8 1.8 0 01-2-1.7 1.1 1.1 0 010-.2 1.8 1.8 0 011.8-1.8h.3a1.8 1.8 0 012 1.6 1 1 0 010 .2 1.9 1.9 0 01-1.9 1.9zm10 6.8a3.8 3.8 0 004-3.6v-.3a3.7 3.7 0 00-3.4-3.9h-.2a3.2 3.2 0 00-2.2.8l.3-3.3h5v-1.5H12l-.6 5.9 1.6.2a3.1 3.1 0 011.9-.6 2.4 2.4 0 012.4 2.3v.1a2.3 2.3 0 01-2.2 2.5h-.1a2 2 0 01-2.1-1.8h-1.7c0 1.9 1.6 3.2 3.8 3.2zm15.5-6.7h-5.1v1.5h5.2zm10.5 6.7c2.4 0 4.1-1.3 4.1-3.2a3 3 0 00-2.3-3 2.6 2.6 0 002-2.6c0-1.8-1.7-3.1-3.8-3.1s-3.7 1.3-3.7 3a2.6 2.6 0 001.9 2.7 3 3 0 00-2.3 3c-.1 1.8 1.6 3.2 4.1 3.2zm0-1.4c-1.5 0-2.4-.8-2.4-2a2.4 2.4 0 014.8 0 2.1 2.1 0 01-2.4 2zm0-5.4a1.8 1.8 0 01-2-1.7 1.1 1.1 0 010-.2 1.8 1.8 0 011.8-1.8h.2a1.8 1.8 0 012 1.6 1 1 0 010 .2 1.9 1.9 0 01-1.9 1.9zm10-5.1a3.8 3.8 0 00-4 3.6v.3a3.7 3.7 0 003.5 3.8h.1a3.3 3.3 0 003-1.6c0 2.7-1 4.3-2.7 4.3a2 2 0 01-2-1.7H47a3.6 3.6 0 003.8 3.2c2.7 0 4.4-2.3 4.4-6.4s-2.2-5.5-4.3-5.5zm0 1.4a2.4 2.4 0 012.3 2.5A2.4 2.4 0 0151 126a2.3 2.3 0 01-2.3-2.3v-.1a2.4 2.4 0 012.2-2.5z"/><path fill="#e0e0e0" d="M0 142.7h132.5v1.5H0z"/><path d="M5 167.7c2.5 0 4.2-1.4 4.2-3.3a3 3 0 00-2.3-3 2.6 2.6 0 001.9-2.6c0-1.8-1.6-3-3.8-3s-3.7 1.2-3.7 3a2.6 2.6 0 002 2.6 3 3 0 00-2.4 3c0 1.9 1.7 3.3 4.1 3.3zm0-1.5c-1.4 0-2.3-.7-2.3-1.9a2.1 2.1 0 012.2-2H5a2.2 2.2 0 012.4 2c0 1.2-1 2-2.4 2zm0-5.4a1.8 1.8 0 01-2-1.6 1.1 1.1 0 010-.2 1.8 1.8 0 011.8-1.9h.3a1.8 1.8 0 012 1.7 1 1 0 010 .2 1.9 1.9 0 01-1.9 1.8zm10.3 7c2.7 0 4.2-2.3 4.2-6s-1.6-6-4.2-6-4.3 2.1-4.3 5.9 1.6 6 4.3 6zm0-1.6c-1.6 0-2.5-1.6-2.5-4.5s1-4.5 2.5-4.5 2.5 1.6 2.5 4.5-1 4.5-2.5 4.5zM31 161h-5.2v1.5H31zm10.4 6.7c2.4 0 4.1-1.4 4.2-3.2a3 3 0 00-2.4-3 2.6 2.6 0 002-2.7c0-1.7-1.7-3-3.8-3s-3.7 1.3-3.7 3a2.6 2.6 0 001.9 2.6v.1a3 3 0 00-2.3 3c0 1.8 1.6 3.2 4 3.2zm0-1.4c-1.4 0-2.4-.8-2.4-2a2.1 2.1 0 012.2-2h.2a2.2 2.2 0 012.4 2c0 1.2-1 2-2.4 2zm0-5.4a1.8 1.8 0 01-2-1.7 1.1 1.1 0 010-.2 2 2 0 014 0 1.9 1.9 0 01-1.9 1.8h-.1zm6 4.4h5.4v2.3h1.7v-2.3H56v-1.5h-1.5v-7.9h-2.2l-5 8zm5.5-1.5H49v-.1l3.6-5.7h.1z"/><path fill="#e0e0e0" d="M0 178.8h132.5v1.5H0z"/><path d="M1.5 203.6h1.9l5-10.1v-1.6H.7v1.5h5.9v.1zm12.6.1a3.8 3.8 0 004-3.6v-.3a3.7 3.7 0 00-3.5-3.9h-.2a3.2 3.2 0 00-2.1.8h-.1l.4-3.3h4.9V192h-6.4l-.6 5.9 1.6.2a3.1 3.1 0 011.9-.6 2.4 2.4 0 012.4 2.3v.2a2.3 2.3 0 01-2.2 2.4h-.1a2 2 0 01-2.1-1.8h-1.7c0 1.9 1.6 3.2 3.8 3.2zm15.5-6.7h-5.2v1.5h5.2zm6.8 6.6h1.9l5-10.1v-1.6h-7.7v1.5h5.9v.1zM49 191.8a3.8 3.8 0 00-4 3.6v.3a3.7 3.7 0 003.5 3.8h.1a3.3 3.3 0 002.9-1.5c0 2.7-1 4.2-2.6 4.2a2 2 0 01-2.1-1.6h-1.7a3.6 3.6 0 003.8 3.2c2.7 0 4.4-2.3 4.4-6.4 0-4.3-2.2-5.6-4.3-5.6zm0 1.4a2.4 2.4 0 012.3 2.5A2.4 2.4 0 0149 198a2.3 2.3 0 01-2.3-2.3v-.1a2.4 2.4 0 012.3-2.5z"/><path fill="#e0e0e0" d="M0 214.8h132.5v1.5H0z"/><path d="M1.5 239.6h1.9l5-10V228H.7v1.5h5.9zm12.7.2c2.7 0 4.3-2.2 4.3-6s-1.7-6-4.3-6-4.3 2.2-4.3 6 1.6 6 4.3 6zm0-1.5c-1.6 0-2.5-1.6-2.5-4.5s1-4.5 2.5-4.5 2.5 1.6 2.5 4.5-1 4.5-2.5 4.5zm15.7-5.2h-5.2v1.4h5.2zm6.8 6.5h1.9l5-10V228H36v1.5h6zm7.7-2.3H50v2.3h1.7v-2.3h1.5V236h-1.5V228h-2.1l-5 8zM50 236h-3.7v-.1l3.6-5.7h.1z"/><path fill="#e0e0e0" d="M0 250.9h132.5v1.5H0z"/><path d="M5.2 275.8a3.8 3.8 0 004-3.6 2 2 0 000-.4 3.6 3.6 0 00-3.5-3.8h-.1a3.4 3.4 0 00-2.9 1.6c0-2.7 1-4.2 2.6-4.2a2 2 0 012 1.6h1.8a3.7 3.7 0 00-3.8-3.2c-2.7 0-4.4 2.3-4.4 6.4 0 4.3 2.2 5.6 4.3 5.6zm0-1.5a2.4 2.4 0 01-2.4-2.3 2.4 2.4 0 012.4-2.4 2.3 2.3 0 012.3 2.3 2.4 2.4 0 01-2.3 2.5zm10 1.5a3.8 3.8 0 004-3.6v-.3a3.7 3.7 0 00-3.5-3.9h-.2a3.2 3.2 0 00-2.1.8l.3-3.3h5V264h-6.5l-.6 5.9 1.6.2a3.1 3.1 0 011.9-.7 2.4 2.4 0 012.4 2.4v.1a2.3 2.3 0 01-2.2 2.4h-.1a2 2 0 01-2.2-1.7h-1.7a3.5 3.5 0 003.8 3.2zm15.5-6.7h-5.3v1.5h5.2zm10.5 6.7a3.8 3.8 0 004-3.6 2 2 0 000-.4 3.6 3.6 0 00-3.5-3.8h-.1a3.4 3.4 0 00-3 1.6c0-2.7 1-4.2 2.7-4.2a2 2 0 012 1.6h1.8a3.6 3.6 0 00-3.8-3.2c-2.7 0-4.4 2.3-4.4 6.4 0 4.3 2.2 5.6 4.2 5.6zm0-1.5a2.4 2.4 0 01-2.3-2.4 2.4 2.4 0 012.3-2.4 2.3 2.3 0 012.3 2.3v.1a2.4 2.4 0 01-2.2 2.5h-.1zm10-10.4a3.8 3.8 0 00-4 3.6v.3a3.7 3.7 0 003.5 3.8h.1a3.3 3.3 0 003-1.6c0 2.7-1 4.3-2.7 4.3a2 2 0 01-2.1-1.7h-1.8a3.6 3.6 0 003.8 3.2c2.7 0 4.4-2.3 4.4-6.4 0-4.2-2.2-5.5-4.3-5.5zm0 1.4a2.4 2.4 0 012.4 2.5 2.4 2.4 0 01-2.4 2.4 2.3 2.3 0 01-2.3-2.4 2.4 2.4 0 012.2-2.5z"/><path fill="#e0e0e0" d="M0 286.9h132.5v1.5H0z"/><path d="M5.2 311.9a3.8 3.8 0 004-3.7 2 2 0 000-.3 3.6 3.6 0 00-3.5-3.8h-.2a3.3 3.3 0 00-2.8 1.5c0-2.6 1-4.2 2.7-4.2a2 2 0 012 1.7h1.7a3.7 3.7 0 00-3.8-3.2c-2.7 0-4.4 2.3-4.4 6.4 0 4.3 2.2 5.6 4.3 5.6zm0-1.5a2.4 2.4 0 01-2.4-2.4 2.4 2.4 0 012.4-2.4 2.3 2.3 0 012.3 2.3v.1a2.4 2.4 0 01-2.3 2.4zm10.1 1.5c2.7 0 4.3-2.2 4.3-6s-1.6-6-4.3-6-4.2 2.2-4.2 6 1.6 6 4.2 6zm0-1.5c-1.5 0-2.5-1.6-2.5-4.5s1-4.5 2.5-4.5 2.6 1.6 2.6 4.5-1 4.5-2.6 4.5zm15.7-5.2h-5.1v1.4H31zm10.5 6.7a3.8 3.8 0 004-3.7 2 2 0 000-.3A3.7 3.7 0 0042 304a3.3 3.3 0 00-2.9 1.6H39c0-2.7 1-4.3 2.7-4.3a2 2 0 012 1.7h1.8a3.7 3.7 0 00-3.8-3.2c-2.7 0-4.4 2.3-4.4 6.4 0 4.3 2.2 5.6 4.3 5.6zm0-1.5a2.4 2.4 0 01-2.3-2.4 2.4 2.4 0 012.4-2.4 2.3 2.3 0 012.3 2.3 2.4 2.4 0 01-2.3 2.5zm6-1h5.4v2.3h1.7v-2.3h1.5V308h-1.5v-7.9h-2.1l-5 8zM53 308h-3.7l3.6-5.8h.1z"/><path fill="#e0e0e0" d="M0 323h132.5v1.5H0z"/><path d="M5 348a3.8 3.8 0 004-3.7v-.3a3.7 3.7 0 00-3.5-3.9h-.2a3.2 3.2 0 00-2.1.8H3l.4-3.3h4.9v-1.5H2l-.6 5.9 1.6.2a3.2 3.2 0 011.9-.6 2.4 2.4 0 012.4 2.3v.1a2.3 2.3 0 01-2.1 2.5H5a2 2 0 01-2.1-1.8H1c.1 1.9 1.7 3.2 3.9 3.2zm10 0a3.8 3.8 0 004-3.7v-.3a3.7 3.7 0 00-3.5-3.9h-.3a3.2 3.2 0 00-2 .8H13l.4-3.3h5v-1.5h-6.5l-.6 5.9 1.6.2a3.2 3.2 0 012-.6 2.4 2.4 0 012.3 2.3v.1a2.3 2.3 0 01-2.2 2.4h-.1a2 2 0 01-2.2-1.7H11a3.5 3.5 0 003.8 3.3h.1zm15.4-6.8h-5.2v1.5h5.2zm10.3 6.7a3.8 3.8 0 004-3.6v-.3a3.7 3.7 0 00-3.4-3.9H41a3.2 3.2 0 00-2.1.8l.3-3.3h5v-1.5h-6.5l-.6 5.9 1.6.2a3.2 3.2 0 012-.6 2.4 2.4 0 012.3 2.3v.1a2.3 2.3 0 01-2.2 2.4h-.1a2 2 0 01-2.1-1.7h-1.7c0 1.9 1.6 3.2 3.8 3.2zm10-12a3.8 3.8 0 00-4 3.7v.3a3.7 3.7 0 003.5 3.8h.1a3.3 3.3 0 003-1.6c0 2.7-1 4.3-2.7 4.3a2 2 0 01-2-1.7h-2a3.6 3.6 0 003.9 3.2c2.7 0 4.4-2.3 4.4-6.4 0-4.2-2.2-5.5-4.3-5.5zm0 1.5a2.5 2.5 0 010 4.9 2.3 2.3 0 01-2.4-2.3 2.4 2.4 0 012.3-2.5z"/><path fill="#e0e0e0" d="M0 359h132.5v1.5H0z"/><path d="M5 384a3.8 3.8 0 004-3.7v-.2a3.7 3.7 0 00-3.5-4h-.2a3.2 3.2 0 00-2.1.9H3l.4-3.3h4.9v-1.5H2l-.7 5.9 1.7.2a3.1 3.1 0 012-.7 2.4 2.4 0 012.3 2.4v.1a2.3 2.3 0 01-2.2 2.4H5a2 2 0 01-2.1-1.7H1c.1 1.8 1.7 3.2 3.9 3.2zm10.1 0c2.7 0 4.3-2.2 4.3-6s-1.6-6-4.3-6-4.2 2.2-4.2 6 1.5 6 4.2 6zm0-1.5c-1.5 0-2.5-1.6-2.5-4.5s1-4.5 2.5-4.5 2.6 1.6 2.6 4.5-1 4.5-2.6 4.5zm15.7-5.2h-5.2v1.4h5.2zm10.3 6.7a3.8 3.8 0 004-3.6v-.3a3.7 3.7 0 00-3.4-4h-.3a3.2 3.2 0 00-2.1.9l.3-3.3h5v-1.5H38l-.6 5.9 1.6.2a3 3 0 012-.7 2.4 2.4 0 012.3 2.4v.1a2.3 2.3 0 01-2.2 2.5h-.1a2 2 0 01-2.1-1.8h-1.7A3.6 3.6 0 0041 384zm5.8-2.4h5.5v2.2h1.7v-2.2h1.5V380h-1.5v-8H52l-5 8zm5.6-1.5h-3.7v-.1l3.6-5.7z"/><path fill="#e0e0e0" d="M0 395.1h132.5v1.5H0z"/><path d="M.9 417.6h5.5v2.3H8v-2.3h1.5v-1.5H8.1v-7.9H5.9l-5 8zm5.5-1.5H2.7v-.1l3.6-5.7h.1zm9 4a3.8 3.8 0 004-3.7v-.3a3.7 3.7 0 00-3.4-3.9h-.2a3.2 3.2 0 00-2.2.8l.3-3.3h5v-1.5h-6.4l-.7 6 1.6.2a3.1 3.1 0 012-.7 2.4 2.4 0 012.3 2.3v.1a2.3 2.3 0 01-2.2 2.5h-.1a2 2 0 01-2.1-1.8h-1.7c0 1.9 1.7 3.2 3.8 3.2zm15.5-6.8h-5.1v1.5h5.1zm6.2 4.3h5.5v2.3h1.7v-2.3h1.5v-1.5h-1.5v-7.9h-2.1l-5 8zm5.5-1.5H39v-.1l3.6-5.7zm9-8a3.8 3.8 0 00-4 3.7v.2a3.7 3.7 0 003.5 3.9h.2a3.3 3.3 0 002.9-1.6c0 2.7-1 4.2-2.7 4.2a2 2 0 01-2-1.6h-1.7a3.6 3.6 0 003.8 3.1c2.7 0 4.4-2.3 4.4-6.4s-2.2-5.5-4.3-5.5zm0 1.5a2.4 2.4 0 012.5 2.3v.1a2.4 2.4 0 01-2.4 2.4 2.3 2.3 0 01-2.3-2.3v-.1a2.3 2.3 0 012.2-2.5h.1z"/><path fill="#e0e0e0" d="M0 431.1h132.5v1.5H0z"/><path d="M.9 453.7h5.5v2.2H8v-2.2h1.5v-1.5H8.1v-8H5.9l-5 8zm5.5-1.5H2.7v-.1l3.6-5.7h.1zm9.2 4c2.7 0 4.3-2.2 4.3-6s-1.6-6-4.3-6-4.2 2.2-4.2 6 1.6 6 4.2 6zm0-1.5c-1.5 0-2.5-1.6-2.5-4.5s1-4.5 2.5-4.5 2.6 1.6 2.6 4.5-1 4.4-2.6 4.4zm15.7-5.3h-5.1v1.5h5.1zm6.3 4.3H43v2.3h1.6v-2.3h1.6v-1.5h-1.6v-7.9h-2.1l-5 8zm5.5-1.5h-3.7l3.6-5.8zm4.9 1.5h5.5v2.3h1.7v-2.3h1.5v-1.5h-1.5v-7.9H53l-5 8zm5.5-1.5H50l3.6-5.8z"/><path fill="#e0e0e0" d="M0 467.3h132.5v1.5H0z"/><path d="M5.2 492.2c2.7 0 4.2-2.2 4.2-6s-1.6-6-4.2-6-4.3 2.2-4.3 6 1.6 6 4.3 6zm0-1.5c-1.6 0-2.6-1.6-2.6-4.5s1-4.5 2.6-4.5 2.5 1.6 2.5 4.5-1 4.5-2.5 4.5zm15.6-5.3h-5.1v1.5h5.2zm10.6 6.7c2.4 0 4-1.4 4-3.3a2.7 2.7 0 00-2.3-2.8 2.5 2.5 0 002-2.7c0-1.7-1.4-3.1-3.7-3.1s-3.8 1.3-3.9 3.2h1.7a2 2 0 012.2-1.8 1.8 1.8 0 012 1.6 2 2 0 010 .2 2 2 0 01-2 2h-1.2v1.4h1c1.6 0 2.6.8 2.6 2s-1 1.8-2.4 1.8-2.2-.6-2.3-1.6h-1.8c0 1.9 1.7 3.1 4 3.1zm10.1-12a3.8 3.8 0 00-4 3.7v.3a3.7 3.7 0 003.5 3.8h.1a3.3 3.3 0 002.9-1.5c0 2.6-1 4.2-2.6 4.2a2 2 0 01-2-1.7h-1.8a3.6 3.6 0 003.8 3.2c2.7 0 4.4-2.3 4.4-6.4 0-4.2-2.2-5.5-4.3-5.5zm0 1.5a2.4 2.4 0 012.3 2.4 2.4 2.4 0 01-2.3 2.4 2.3 2.3 0 01-2.3-2.3 2.4 2.4 0 012.3-2.5zM271.3 59.4l1-3.1h4.6l1 3h1.9l-4.2-11.6h-2l-4.2 11.7zm1.5-4.6l1.8-5 1.8 5zm15.3-7.4a3.1 3.1 0 01-2 .3h-.9c-2.8 0-4.3 2-4.3 6v1c0 3.1 1.6 4.8 4 4.8s4-1.7 4-4.4-1.4-4.1-3.5-4.1a3.1 3.1 0 00-3 1.6c.2-2.2 1-3.3 2.9-3.4 1.6 0 2.7 0 3.5-.7zM285 58c-1.4 0-2.3-1.1-2.3-3s.9-2.8 2.3-2.8 2.3 1 2.3 2.8-.9 3-2.3 3zm9.6 1.4a3.3 3.3 0 003.6-2.9h-1.7a1.9 1.9 0 01-1.9 1.5c-1.4 0-2.4-1.2-2.4-3.1s1-3 2.4-3a1.9 1.9 0 012 1.5h1.6a3.3 3.3 0 00-3.6-3c-2.5 0-4 2-4 4.6s1.4 4.4 4 4.4zm9 0c2.5 0 4.1-1.8 4.1-4.5s-1.6-4.5-4-4.5-4.1 1.8-4.1 4.5 1.6 4.5 4 4.5zm0-1.4c-1.6 0-2.3-1.4-2.3-3s.7-3.2 2.4-3.2 2.3 1.5 2.3 3.1-.7 3.1-2.3 3.1zm5.3 1.3h.6c1.9 0 2.6-1.5 2.7-4.3l.1-3h2.9v7.2h1.7v-8.7h-6.1l-.2 3.9c0 2.7-.4 3.4-1.4 3.4h-.3zm11.3-8.8h-1.7v8.8h1.7v-3.6h2a4 4 0 004 3.7c2.4 0 4-1.8 4-4.5s-1.6-4.5-4-4.5a4 4 0 00-4 3.8h-2zm6 7.5c-1.7 0-2.4-1.4-2.4-3s.7-3 2.4-3 2.4 1.3 2.4 3-.8 3-2.4 3zm5-6h2.8v7.3h1.7V52h2.8v-1.5h-7.4zm10.8-1.5h-1.7v8.8h1.7v-3.7h3.8v3.7h1.6v-8.8h-1.6v3.7H342zm10.3 9a2.7 2.7 0 002.5-1.4h.1v1.2h1.7v-5.8c0-2.6-2-3-3.4-3a3.5 3.5 0 00-3.6 2.1l1.6.4a2 2 0 012-1.2 1.4 1.4 0 011.6 1.2 1.3 1.3 0 010 .3c0 .7-.6.7-2.2.8s-3.3.7-3.3 2.7a2.6 2.6 0 002.5 2.7 2 2 0 00.4 0zm.3-1.4c-1 0-1.6-.4-1.6-1.3s.8-1.2 1.8-1.3a6.6 6.6 0 002-.5v1.1a2 2 0 01-2 2h-.2zm10.4 1.2h1.7V52h3.8v7.3h1.7v-8.8H363zm9.4 3.2h1.7V58h.1a2.6 2.6 0 002.6 1.5c2 0 3.6-1.7 3.6-4.5s-1.5-4.5-3.7-4.5a2.6 2.6 0 00-2.5 1.5h-.1v-1.4h-1.7zm1.7-7.6c0-1.8.8-3 2.3-3s2.3 1.3 2.3 3-.8 3-2.3 3-2.3-1.2-2.3-3zm11.9 4.5c2.5 0 4-1.8 4-4.5s-1.5-4.5-4-4.5-4 1.8-4 4.5 1.6 4.5 4 4.5zm0-1.4c-1.6 0-2.4-1.4-2.4-3s.8-3.2 2.4-3.2 2.4 1.5 2.4 3.1-.8 3.1-2.4 3.1zm5.4-1c0 1.5 1.5 2.4 3.5 2.4s3.4-1 3.4-2.6a2 2 0 00-1.7-2v-.1A1.9 1.9 0 00398 53c0-1.4-1.2-2.5-3.2-2.5s-3.2 1-3.2 2.5h1.7c0-.6.7-1 1.6-1s1.5.4 1.5 1-.5 1.2-1.5 1.2h-1.4v1.3h1.4c1 0 1.6.6 1.6 1.4s-.8 1.3-1.8 1.3-1.6-.4-1.6-1.2zm12.3 2.4c2.5 0 4-1.8 4-4.5s-1.5-4.5-4-4.5-4 1.8-4 4.5 1.6 4.5 4 4.5zm0-1.4c-1.6 0-2.4-1.4-2.4-3s.8-3.2 2.4-3.2 2.4 1.5 2.4 3.1-.8 3.1-2.4 3.1zm6 4.5h1.7V58h.1a2.7 2.7 0 002.5 1.5c2.1 0 3.6-1.7 3.6-4.5s-1.5-4.5-3.6-4.5a2.6 2.6 0 00-2.5 1.5h-.2v-1.4h-1.6zm1.7-7.6c0-1.8.8-3 2.2-3s2.4 1.3 2.4 3-.8 3-2.3 3-2.3-1.2-2.3-3zm8.2 4.4h1.7v-8.8h-1.7zm.8-10.1a1 1 0 10-1-1 1 1 0 001 1zm6.8 10.2a3.3 3.3 0 003.6-2.9h-1.6a1.9 1.9 0 01-2 1.5c-1.4 0-2.3-1.2-2.3-3.1s1-3 2.3-3a1.9 1.9 0 012 1.5h1.6a3.3 3.3 0 00-3.6-3c-2.5 0-4 2-4 4.6s1.5 4.4 4 4.4zm4.8-7.4h2.9v7.3h1.6V52h2.9v-1.5H432zm10.8 1.5v-3h-1.6v8.8h3.8c2.1 0 3.3-1.3 3.3-3s-1.2-2.8-3.3-2.8zm0 1.5h2.2a1.5 1.5 0 011.7 1.3.5.5 0 010 .1c0 .8-.7 1.4-1.7 1.4h-2.2z"/><path fill="#e0e0e0" d="M267.5 70.6H505v1.5H267.5z"/><path d="M270.3 113.4h4.4c2.7 0 4-1.3 4-3a2.7 2.7 0 00-2.5-3 2.4 2.4 0 002-2.6c0-1.7-1.1-3-3.6-3h-4.3zm1.7-1.5v-3.7h2.6a2 2 0 012.3 1.9.7.7 0 010 .1c0 1-.7 1.7-2.3 1.7zm0-5v-3.6h2.4c1.4 0 2 .7 2 1.7a2 2 0 01-2 1.8H272zm8.6 6.5h1.7v-8.7h-1.7zm.9-10a1 1 0 10-1-1 1 1 0 001 1zm2.2 12.6h1.7v-2.5h6.1v2.5h1.7v-4h-1.4v-7.3H286l-.3 3.3c-.2 2.2-.4 3.3-1.2 4h-.7zm2.6-4a8.7 8.7 0 001-4l.1-1.8h2.8v5.8zm13.4-.6l-2.7-6.7h-2.1v8.7h1.6v-6.3l2.6 6.3h1.3l2.6-6.3v6.3h1.7v-8.7h-2.1zm7.2 2h1.7v-8.7H307zm.9-10a1 1 0 10-1-1 1 1 0 001 1zm4.8 1.3h-1.7v8.8h1.7v-3.7h3.7v3.7h1.7v-8.8h-1.7v3.6h-3.7zm9.3 0h-1.6v8.8h1.7v-3.7h3.8v3.7h1.6v-8.8h-1.6v3.6H322zm10.3 9a2.8 2.8 0 002.6-1.4v1.2h1.7v-5.8c0-2.6-2-3-3.4-3a3.5 3.5 0 00-3.6 2.2l1.6.4a2 2 0 012-1.3 1.4 1.4 0 011.7 1.3 1.3 1.3 0 010 .3c0 .6-.7.6-2.2.8s-3.4.6-3.4 2.6a2.7 2.7 0 002.7 2.7 1.6 1.6 0 00.3 0zm.4-1.4c-1 0-1.7-.4-1.7-1.3s.8-1.2 1.8-1.3a6.1 6.1 0 002.1-.5v1.1a2 2 0 01-2 2h-.2zm10.4 1.1h1.6v-7.2h3.9v7.2h1.6v-8.7H343zm9.4 3.3h1.7v-4.6a2.7 2.7 0 002.6 1.5c2.1 0 3.7-1.7 3.7-4.5s-1.6-4.5-3.7-4.5a2.6 2.6 0 00-2.5 1.5h-.2v-1.4h-1.6zm1.7-7.6c0-1.9.7-3 2.2-3s2.3 1.3 2.3 3-.8 3-2.3 3-2.2-1.2-2.2-3zm11.8 4.5c2.5 0 4.1-1.8 4.1-4.5s-1.6-4.5-4-4.5-4.1 1.8-4.1 4.5 1.6 4.5 4 4.5zm0-1.4c-1.6 0-2.3-1.4-2.3-3s.7-3.2 2.3-3.2 2.4 1.4 2.4 3.1-.7 3-2.3 3zm5.5-1c0 1.5 1.5 2.4 3.4 2.4s3.4-1 3.4-2.6a2 2 0 00-1.7-2 1.9 1.9 0 001.5-2c0-1.4-1.2-2.5-3.2-2.5s-3.2 1-3.2 2.5h1.7c0-.6.7-1.1 1.6-1.1s1.5.5 1.5 1.2-.5 1.1-1.5 1.1h-1.4v1.4h1.5c1 0 1.6.5 1.6 1.3s-.8 1.3-1.8 1.3-1.6-.4-1.6-1.1zm12.3 2.4c2.4 0 4-1.8 4-4.5s-1.6-4.5-4-4.5-4.1 1.8-4.1 4.5 1.6 4.5 4 4.5zm0-1.4c-1.7 0-2.4-1.4-2.4-3s.7-3.2 2.3-3.2 2.4 1.4 2.4 3.1-.7 3-2.3 3zm6 4.5h1.6v-4.6h.1a2.6 2.6 0 002.6 1.5c2 0 3.6-1.7 3.6-4.5s-1.5-4.5-3.7-4.5a2.6 2.6 0 00-2.5 1.5v-1.4h-1.8zm1.6-7.6c0-1.9.8-3 2.3-3s2.3 1.3 2.3 3-.8 3-2.3 3-2.3-1.2-2.3-3zm8.2 4.3h1.7v-8.7h-1.7zm.9-10zm6.8 10.2a3.3 3.3 0 003.6-3H409a1.9 1.9 0 01-2 1.6c-1.3 0-2.3-1.2-2.3-3.1s1-3 2.4-3a1.9 1.9 0 012 1.5h1.6a3.3 3.3 0 00-3.6-3c-2.5 0-4 1.9-4 4.6s1.4 4.4 4 4.4zm4.7-7.4h2.9v7.2h1.6v-7.2h2.9v-1.5h-7.4zm10.9 1.5v-3H421v8.7h3.8c2.1 0 3.3-1.2 3.3-2.8s-1.2-2.9-3.3-2.9zm0 1.5h2.1a1.5 1.5 0 011.7 1.3.5.5 0 010 .1c0 .8-.7 1.4-1.7 1.4h-2.2z"/><path fill="#e0e0e0" d="M267.5 142.7H505v1.5H267.5z"/><path d="M269.4 206.4h1.7v-2.8h7.8v2.8h1.7V202h-1.3v-10.2H272l-.3 5c-.2 3.2-.9 4.5-1.6 5.2h-.8zm2.8-4.3a11.2 11.2 0 001.3-5.3l.2-3.4h3.9v8.7zm13.8 1.7c2.5 0 4-1.9 4-4.6s-1.5-4.5-4-4.5-4 1.8-4 4.5 1.6 4.6 4 4.6zm0-1.5c-1.6 0-2.4-1.4-2.4-3s.8-3.2 2.4-3.2 2.4 1.5 2.4 3.1-.8 3.1-2.4 3.1zm12.7-10.7a3 3 0 01-2 .3h-.9c-2.8 0-4.3 2-4.3 6v1c0 3.1 1.6 4.8 4 4.8s4-1.7 4-4.4-1.5-4.1-3.6-4.1a3.1 3.1 0 00-2.9 1.6c.2-2.2 1-3.3 3-3.4 1.6 0 2.7 0 3.4-.8zm-3 10.7c-1.5 0-2.4-1.1-2.4-3s.9-2.8 2.3-2.8 2.3 1 2.3 2.8-.8 3-2.2 3zm5.8 4.5h1.7v-4.6h.1a2.7 2.7 0 002.6 1.5c2 0 3.6-1.6 3.6-4.5s-1.6-4.5-3.7-4.5a2.6 2.6 0 00-2.5 1.6h-.1v-1.5h-1.7zm1.7-7.6c0-1.8.8-3 2.3-3s2.3 1.3 2.3 3-.8 3-2.3 3-2.3-1.2-2.3-3zm10.8 4.6a2.7 2.7 0 002.6-1.4v1.2h1.7v-5.8c0-2.6-2-3-3.4-3a3.5 3.5 0 00-3.6 2.1l1.6.4a2 2 0 012-1.2 1.5 1.5 0 011.7 1.2 1.2 1.2 0 010 .4c0 .6-.7.6-2.2.8s-3.4.6-3.4 2.6a2.6 2.6 0 002.6 2.7 1.8 1.8 0 00.4 0zm.4-1.4c-1 0-1.7-.4-1.7-1.3s.8-1.2 1.8-1.3a6.7 6.7 0 002.1-.5v1.1a2 2 0 01-2.1 2h-.1zm10.4 1.2h1.7v-7.3h3.8v7.3h1.6v-8.8h-7.1zm9.4 3.2h1.7v-4.6a2.7 2.7 0 002.6 1.5c2.1 0 3.7-1.7 3.7-4.5s-1.6-4.5-3.7-4.5a2.6 2.6 0 00-2.5 1.5h-.2v-1.4h-1.6zm1.7-7.6c0-1.8.8-3 2.2-3s2.3 1.3 2.3 3-.7 3-2.3 3-2.3-1.2-2.3-3zm11.8 4.5c2.5 0 4.1-1.8 4.1-4.5s-1.6-4.5-4-4.5-4.1 1.8-4.1 4.5 1.6 4.5 4 4.5zm0-1.4c-1.6 0-2.3-1.4-2.3-3s.7-3.2 2.3-3.2 2.4 1.5 2.4 3.1-.8 3.1-2.4 3.1zm5.5-1c0 1.5 1.5 2.4 3.4 2.4s3.4-1 3.4-2.6a2 2 0 00-1.7-2v-.1a1.9 1.9 0 001.5-1.8c0-1.5-1.2-2.5-3.1-2.5s-3.3 1-3.3 2.5h1.7c0-.7.7-1.1 1.6-1.1s1.5.4 1.5 1.2-.5 1.1-1.4 1.1h-1.5v1.3h1.5c1 0 1.5.6 1.5 1.4s-.7 1.3-1.7 1.3-1.6-.4-1.7-1.1zm12.3 2.4c2.4 0 4-1.8 4-4.5s-1.6-4.5-4-4.5-4.1 1.8-4.1 4.5 1.6 4.5 4 4.5zm0-1.4c-1.7 0-2.4-1.4-2.4-3s.7-3.2 2.3-3.2 2.4 1.5 2.4 3.1-.8 3.1-2.4 3.1zm6 4.5h1.6v-4.6h.1a2.6 2.6 0 002.6 1.5c2 0 3.6-1.7 3.6-4.5s-1.5-4.5-3.7-4.5a2.6 2.6 0 00-2.5 1.5v-1.4h-1.8zm1.6-7.6c0-1.8.8-3 2.3-3s2.3 1.3 2.3 3-.8 3-2.3 3-2.3-1.2-2.3-3zm8.2 4.4h1.7v-8.8h-1.7zm.9-10.1zm6.8 10.2a3.3 3.3 0 003.6-2.9h-1.7a1.9 1.9 0 01-2 1.5c-1.3 0-2.3-1.2-2.3-3.1s1-3 2.4-3a1.9 1.9 0 012 1.5h1.6a3.4 3.4 0 00-3.6-3c-2.5 0-4 2-4 4.6s1.4 4.4 4 4.4zm4.7-7.4h2.9v7.3h1.6v-7.3h2.9v-1.5h-7.4zm10.9 1.5v-3h-1.7v8.8h3.8c2.1 0 3.3-1.3 3.3-2.9s-1.2-2.9-3.3-2.9zm0 1.5h2.1a1.5 1.5 0 011.7 1.3.4.4 0 010 .1c0 .8-.7 1.4-1.7 1.4h-2.2z"/><path fill="#e0e0e0" d="M267.5 250.9H505v1.5H267.5z"/><path d="M280 303.9a4.6 4.6 0 00-4.9-4c-3 0-5.2 2.3-5.2 6s2.2 6 5.2 6a4.6 4.6 0 004.8-3.9h-1.7a2.9 2.9 0 01-3 2.3c-2 0-3.5-1.5-3.5-4.4s1.5-4.3 3.5-4.3a2.9 2.9 0 013 2.3zm5.7 8a3.5 3.5 0 003.6-2.4l-1.6-.3a2 2 0 01-2 1.3 2.4 2.4 0 01-2.5-2.3v-.4h6.2v-.6c0-3.1-1.9-4.4-3.9-4.4-2.4 0-4 1.9-4 4.6s1.6 4.5 4.2 4.5zm-2.5-5.3a2.4 2.4 0 012.4-2.4 2.1 2.1 0 012.2 2.2 1 1 0 010 .2zm8.1 8.4h1.7v-4.6h.1a2.7 2.7 0 002.5 1.5c2.1 0 3.7-1.7 3.7-4.5s-1.6-4.5-3.7-4.5a2.6 2.6 0 00-2.5 1.5h-.1V303h-1.7zm1.7-7.6c0-1.9.8-3 2.2-3s2.4 1.3 2.4 3-.8 3-2.4 3-2.2-1.2-2.2-3zm12 4.5a3.5 3.5 0 003.6-2.4l-1.6-.2a2 2 0 01-2 1.2 2.4 2.4 0 01-2.5-2.3v-.3h6.2v-.6c0-3.2-1.9-4.4-3.9-4.4-2.4 0-4 1.8-4 4.5s1.5 4.5 4.1 4.5zm-2.5-5.3a2.4 2.4 0 012.4-2.3 2.2 2.2 0 012.2 2.1v.2zm7.2 7.7h1.7v-2.6h6.1v2.6h1.7v-4h-1.4V303h-6l-.2 3.3c-.2 2.2-.5 3.3-1.2 4h-.7zm2.6-4a8.7 8.7 0 001-4l.2-1.9h2.7v5.9zm10.2-7.3h-1.7v8.7h1.7v-3.6h3.7v3.6h1.7V303h-1.7v3.6h-3.7zm12.9 8.7h1.6V303h-3.7c-2 0-3.2 1-3.2 2.7a2.4 2.4 0 001.6 2.4l-2 3.6h1.8l1.9-3.4h2zm0-4.8h-2.2c-1 0-1.5-.4-1.5-1.2s.6-1.3 1.6-1.3h2zm8 4.8h1.7v-7.2h3.8v7.2h1.7V303h-7.1zm9.5 3.3h1.7v-4.6a2.7 2.7 0 002.6 1.5c2.1 0 3.6-1.7 3.6-4.5s-1.5-4.5-3.6-4.5a2.6 2.6 0 00-2.5 1.5h-.2V303H353zm1.6-7.6c0-1.9.8-3 2.3-3s2.3 1.3 2.3 3-.8 3-2.3 3-2.3-1.2-2.3-3zm12 4.5c2.4 0 4-1.8 4-4.5s-1.6-4.5-4-4.5-4.2 1.8-4.2 4.5 1.7 4.5 4.1 4.5zm0-1.4c-1.7 0-2.5-1.4-2.5-3.1s.8-3.1 2.4-3.1 2.3 1.4 2.3 3.1-.7 3-2.3 3zm5.3-1c0 1.5 1.5 2.4 3.5 2.4s3.4-1 3.4-2.6a2 2 0 00-1.7-2v-.1a1.9 1.9 0 001.5-1.9c0-1.4-1.2-2.4-3.2-2.4s-3.2 1-3.2 2.5h1.7c0-.7.7-1.2 1.6-1.2s1.5.5 1.5 1.2-.5 1.2-1.5 1.2H374v1.3h1.4c1 0 1.6.6 1.6 1.3s-.8 1.3-1.8 1.3-1.6-.4-1.6-1zm12.3 2.4c2.5 0 4-1.8 4-4.5s-1.5-4.5-4-4.5-4 1.8-4 4.5 1.6 4.5 4 4.5zm0-1.4c-1.6 0-2.3-1.4-2.3-3.1s.7-3.1 2.3-3.1 2.4 1.4 2.4 3.1-.8 3-2.4 3zm6 4.5h1.7v-4.6h.1a2.6 2.6 0 002.5 1.5c2.1 0 3.7-1.7 3.7-4.5s-1.6-4.5-3.7-4.5a2.6 2.6 0 00-2.5 1.5h-.1V303H390zm1.7-7.6c0-1.9.8-3 2.3-3s2.3 1.3 2.3 3-.8 3-2.3 3-2.3-1.2-2.3-3zm8.2 4.3h1.7V303H400zm.8-10a1 1 0 001-1.1 1 1 0 00-1.1-1 1 1 0 00-1 1 1 1 0 001.1 1zm6.8 10.2a3.3 3.3 0 003.6-3h-1.6a1.9 1.9 0 01-2 1.6c-1.4 0-2.3-1.2-2.3-3.1s1-3 2.4-3a1.9 1.9 0 011.9 1.4h1.6a3.4 3.4 0 00-3.6-3c-2.4 0-4 2-4 4.6s1.5 4.5 4 4.5zm4.8-7.4h2.9v7.2h1.6v-7.2h2.9V303h-7.4zm10.8 1.5v-3h-1.7v8.7h3.8c2.2 0 3.4-1.2 3.4-2.8s-1.2-2.9-3.4-2.9zm0 1.5h2.1a1.5 1.5 0 011.7 1.3.5.5 0 010 .1 1.5 1.5 0 01-1.6 1.4h-2.2z"/><path fill="#e0e0e0" d="M267.5 359H505v1.5H267.5z"/><path d="M270.3 419.9h1.7v-5.1h5.8v5h1.8v-11.6h-1.8v5H272v-5h-1.8zm15.5.2a3.5 3.5 0 003.6-2.4l-1.6-.3a2 2 0 01-2 1.3 2.4 2.4 0 01-2.5-2.3 2 2 0 010-.4h6.2v-.6c0-3.1-1.9-4.4-3.8-4.4-2.5 0-4 1.9-4 4.6s1.5 4.5 4 4.5zm-2.5-5.4a2.4 2.4 0 012.4-2.3 2.2 2.2 0 012.2 2.2v.1zm7.2 7.7h1.7v-2.5h6.1v2.5h1.7v-4h-1.3v-7.3h-6l-.2 3.3c-.2 2.2-.5 3.3-1.2 4h-.7zm2.6-4a8.7 8.7 0 001-4l.2-1.8h2.7v5.8zm12.2 1.6c2.5 0 4-1.8 4-4.5s-1.5-4.5-4-4.5-4 1.8-4 4.5 1.6 4.6 4 4.6zm0-1.4c-1.6 0-2.3-1.4-2.3-3s.7-3.2 2.3-3.2 2.4 1.5 2.4 3.1-.8 3.1-2.4 3.1zm9.7 1.4a3.3 3.3 0 003.5-2.9H317a1.9 1.9 0 01-2 1.5c-1.4 0-2.3-1.2-2.3-3.1s1-3 2.4-3a1.9 1.9 0 011.9 1.4h1.6a3.4 3.4 0 00-3.6-2.9c-2.4 0-4 1.9-4 4.5s1.5 4.6 4.1 4.6zm4.7-7.4h2.9v7.3h1.6v-7.3h2.9v-1.5h-7.4zm11.3 7.5a2.7 2.7 0 002.6-1.4v1.2h1.7V414c0-2.6-2-3-3.4-3a3.5 3.5 0 00-3.6 2.2l1.6.3a2 2 0 012-1.2 1.5 1.5 0 011.7 1.2 1.6 1.6 0 010 .4c0 .6-.6.6-2.2.8s-3.4.6-3.4 2.6a2.6 2.6 0 002.6 2.7 2.2 2.2 0 00.4 0zm.4-1.4c-1 0-1.7-.4-1.7-1.3s.8-1.2 1.8-1.3a6.6 6.6 0 002.1-.5v1.1a2 2 0 01-2.1 2h-.1zm5-6h3v7.2h1.6v-7.3h2.9v-1.5h-7.4zm11-1.6h-1.7v8.8h1.6v-3.7h3.8v3.7h1.6V411h-1.6v3.7h-3.8zm12.8 8.8h1.6V411h-3.7c-2 0-3.2 1-3.2 2.7a2.4 2.4 0 001.6 2.4l-2 3.7h1.8l1.9-3.4h2zm0-4.8H358c-1 0-1.5-.5-1.5-1.3s.6-1.2 1.6-1.2h2.1zm8.1 4.8h1.7v-7.3h3.8v7.3h1.7V411h-7.2zm9.4 3.3h1.7v-4.7h.1a2.6 2.6 0 002.5 1.5c2.1 0 3.7-1.7 3.7-4.5S384 411 382 411a2.6 2.6 0 00-2.5 1.5h-.1v-1.4h-1.7zm1.7-7.7c0-1.8.8-3 2.3-3s2.3 1.3 2.3 3-.8 3.1-2.3 3.1-2.3-1.3-2.3-3zm11.9 4.6c2.4 0 4-1.9 4-4.6s-1.6-4.5-4-4.5-4.1 1.8-4.1 4.5 1.6 4.6 4 4.6zm0-1.5c-1.6 0-2.4-1.4-2.4-3s.8-3.2 2.4-3.2 2.3 1.5 2.3 3.1-.7 3.1-2.3 3.1zm5.4-1c0 1.5 1.5 2.5 3.4 2.5s3.4-1 3.4-2.7a2 2 0 00-1.7-2 1.9 1.9 0 001.6-2c0-1.4-1.3-2.4-3.2-2.4s-3.2 1-3.3 2.5h1.8c0-.7.7-1.1 1.6-1.1s1.4.5 1.4 1.2-.4 1.1-1.4 1.1h-1.4v1.4h1.4c1 0 1.6.5 1.6 1.3s-.8 1.3-1.8 1.3-1.6-.4-1.7-1.1zM409 420c2.5 0 4-1.9 4-4.6s-1.6-4.5-4-4.5-4 1.8-4 4.5 1.5 4.6 4 4.6zm0-1.5c-1.6 0-2.4-1.4-2.4-3s.8-3.2 2.4-3.2 2.4 1.5 2.4 3.1-.8 3.1-2.4 3.1zm6 4.6h1.7v-4.7h.1a2.6 2.6 0 002.5 1.5c2.1 0 3.7-1.7 3.7-4.5s-1.6-4.5-3.7-4.5a2.6 2.6 0 00-2.5 1.6h-.1V411H415zm1.7-7.7c0-1.8.8-3 2.2-3s2.4 1.3 2.4 3-.8 3.1-2.4 3.1-2.3-1.3-2.3-3zm8.2 4.4h1.7V411h-1.7zm.8-10.1zm6.8 10.3a3.3 3.3 0 003.6-3h-1.6a1.9 1.9 0 01-2 1.5c-1.4 0-2.3-1.2-2.3-3s1-3.1 2.4-3.1a1.9 1.9 0 011.9 1.5h1.6a3.4 3.4 0 00-3.6-3c-2.4 0-4 1.9-4 4.5s1.4 4.6 4 4.6zm4.8-7.5h2.8v7.3h1.7v-7.3h2.8v-1.5h-7.3zm10.7 1.5v-3h-1.7v8.8h3.8c2.2 0 3.4-1.3 3.4-3s-1.2-2.8-3.4-2.8zm0 1.5h2.1a1.5 1.5 0 011.7 1.3.5.5 0 010 .2c0 .7-.7 1.3-1.7 1.3H448z"/><path fill="#e0e0e0" d="M267.5 467.3H505v1.5H267.5z"/><path d="M270.3 492h1.7v-5.1h5.8v5.1h1.8v-11.7h-1.8v5H272v-5h-1.8zm15.5.2a3.5 3.5 0 003.6-2.4l-1.6-.3a2 2 0 01-2 1.3 2.4 2.4 0 01-2.5-2.3v-.3h6.2v-.7c0-3.1-1.9-4.3-3.8-4.3-2.5 0-4 1.8-4 4.5s1.5 4.5 4 4.5zm-2.5-5.3a2.4 2.4 0 012.4-2.3 2.2 2.2 0 012.2 2v.3zm8.1 5.1h1.7v-7.3h3.8v7.3h1.6v-8.7h-7zm9.4 3.3h1.7v-4.7h.1a2.6 2.6 0 002.5 1.6c2.1 0 3.7-1.7 3.7-4.6s-1.6-4.5-3.7-4.5a2.6 2.6 0 00-2.5 1.6h-.1v-1.4h-1.7zm1.7-7.7c0-1.8.8-3 2.2-3s2.3 1.3 2.3 3-.7 3.1-2.3 3.1-2.2-1.3-2.2-3zm9.8 2v-6.3h-1.6v8.7h1.8l3.8-6.4v6.4h1.7v-8.7h-1.8zm9.7 0v-6.3h-1.7v8.7h1.8l3.9-6.4v6.4h1.6v-8.7h-1.8zm3-9.3a1.1 1.1 0 01-2.1 0h-1.4a2.5 2.5 0 005 0zm6.6 3h-1.7v8.7h1.7v-3.6h3.8v3.6h1.6v-8.7h-1.7v3.6h-3.7zm12.9 8.7h1.6v-8.7h-3.7c-2 0-3.2 1-3.2 2.6a2.4 2.4 0 001.6 2.4l-2 3.7h1.7l2-3.4h2zm0-4.8h-2.2c-1 0-1.5-.5-1.5-1.2s.6-1.3 1.6-1.3h2.1zm2.8-2.5h2.8v7.3h1.7v-7.3h2.8v-1.4h-7.3zm10.8-1.4h-1.7v8.7h1.7v-3.6h3.8v3.6h1.6v-8.7H362v3.6H358zm10.2 8.9a2.7 2.7 0 002.6-1.4h.1v1.2h1.7v-5.8c0-2.5-2-3-3.4-3a3.5 3.5 0 00-3.6 2.2l1.6.3a2 2 0 012-1.2 1.4 1.4 0 011.6 1.3 1.3 1.3 0 010 .3c0 .6-.6.6-2.2.8s-3.3.6-3.3 2.6a2.7 2.7 0 002.6 2.7 2.3 2.3 0 00.4 0zm.4-1.4c-1 0-1.6-.4-1.6-1.2s.8-1.3 1.8-1.4a6.1 6.1 0 002-.5v1.1a2 2 0 01-2 2h-.1zm10.5 1.2h1.6v-7.3h3.8v7.3h1.7v-8.7h-7.1zm9.4 3.3h1.6v-4.7h.2a2.6 2.6 0 002.5 1.6c2 0 3.6-1.7 3.6-4.6s-1.5-4.5-3.6-4.5a2.6 2.6 0 00-2.6 1.6v-1.4h-1.8zm1.6-7.7c0-1.8.8-3 2.3-3s2.3 1.3 2.3 3-.8 3.1-2.3 3.1-2.3-1.3-2.3-3zm11.9 4.6c2.5 0 4-1.8 4-4.5s-1.5-4.5-4-4.5-4.1 1.8-4.1 4.5 1.6 4.5 4 4.5zm0-1.4c-1.6 0-2.4-1.5-2.4-3.1s.8-3.1 2.4-3.1 2.3 1.4 2.3 3-.7 3.1-2.3 3.1zm5.4-1.1c0 1.5 1.5 2.5 3.5 2.5s3.4-1 3.4-2.6a2 2 0 00-1.8-2v-.2a1.9 1.9 0 001.6-1.8c0-1.4-1.2-2.5-3.2-2.5s-3.2 1-3.2 2.5h1.7c0-.6.7-1.1 1.6-1.1s1.5.5 1.5 1.2-.5 1.2-1.5 1.2h-1.4v1.3h1.4c1 0 1.6.5 1.6 1.3s-.8 1.3-1.8 1.3-1.6-.4-1.6-1.1zm12.3 2.5c2.5 0 4-1.8 4-4.5s-1.5-4.5-4-4.5-4 1.8-4 4.5 1.6 4.5 4 4.5zm0-1.4c-1.6 0-2.3-1.5-2.3-3.1s.7-3.1 2.3-3.1 2.4 1.4 2.4 3-.8 3.1-2.4 3.1zm6 4.5h1.7v-4.7h.1a2.7 2.7 0 002.5 1.6c2.1 0 3.7-1.7 3.7-4.6s-1.6-4.5-3.7-4.5a2.6 2.6 0 00-2.5 1.6h-.1v-1.4h-1.7zm1.7-7.7c0-1.8.8-3 2.3-3s2.3 1.3 2.3 3-.8 3.1-2.3 3.1-2.4-1.3-2.4-3zm8.2 4.4h1.7v-8.7h-1.7zm.9-10a1 1 0 00.9-1.2 1 1 0 00-1.1-.9 1 1 0 000 2zm6.7 10.2a3.3 3.3 0 003.6-3h-1.6a1.9 1.9 0 01-2 1.5c-1.4 0-2.3-1.2-2.3-3s1-3.1 2.4-3.1a1.9 1.9 0 011.9 1.5h1.6a3.3 3.3 0 00-3.6-3c-2.4 0-4 1.9-4 4.6s1.5 4.5 4 4.5zm4.8-7.5h2.9v7.3h1.7v-7.3h2.8v-1.4h-7.4zm10.8 1.6v-3h-1.6v8.7h3.7c2.1 0 3.3-1.2 3.3-2.9s-1.2-2.8-3.3-2.8zm0 1.4h2.1a1.5 1.5 0 011.7 1.4c0 .9-.7 1.4-1.7 1.4h-2.1zM9.5 2.6H3.8v2.5h2a5.4 5.4 0 013.6 1.1 3.6 3.6 0 011.3 3 3.8 3.8 0 01-1.3 3A5.2 5.2 0 016 13.3H1.1V.5h8.4zM3.8 7.2v4h2a2.3 2.3 0 001.7-.6A1.9 1.9 0 008 9.1a1.7 1.7 0 00-.6-1.3A2.4 2.4 0 006 7.2zm14 6.1a2.7 2.7 0 01-.3-.8 3 3 0 01-2.4 1 3.4 3.4 0 01-2.3-.9 2.6 2.6 0 01-1-2A2.7 2.7 0 0113 8.3a5.6 5.6 0 013.2-.8h1.2v-.6a1.6 1.6 0 00-.3-1 1.4 1.4 0 00-1.1-.4 1.6 1.6 0 00-1 .3 1.1 1.1 0 00-.4.8h-2.5a2.6 2.6 0 01.5-1.5A3.5 3.5 0 0114 4a5.4 5.4 0 012.1-.4 4.2 4.2 0 012.8.9A3 3 0 0120 7v4.1a4.6 4.6 0 00.4 2v.2zm-2.1-1.8a2 2 0 001-.2 1.7 1.7 0 00.7-.7V9h-1c-1.2 0-2 .4-2 1.3v.2a1 1 0 00.4.8 1.2 1.2 0 00.9.2zm14.5-7.7v9.5h-2.6V5.8h-2.2l-.2 3a6.8 6.8 0 01-.9 3.4 2.7 2.7 0 01-2.3 1.1h-.9v-2h.4a1.1 1.1 0 001-.9 8 8 0 00.4-2.6l.1-4zm7.7 0h2.5v9.5H38V7.4l-3.2 5.9H32V3.8h2.6v5.9zM174 7.2a7.9 7.9 0 01-.6 3.3 5 5 0 01-2 2.2 5.2 5.2 0 01-2.8.8 5.3 5.3 0 01-2.8-.8 5.1 5.1 0 01-2-2.2 7.7 7.7 0 01-.6-3.3v-.6a7.8 7.8 0 01.6-3.3 5 5 0 012-2.2 5.7 5.7 0 015.6 0 5 5 0 012 2.2 7.8 7.8 0 01.7 3.3zm-2.6-.6a5.4 5.4 0 00-.7-3A2.5 2.5 0 00167 3a2.3 2.3 0 00-.5.6 5.3 5.3 0 00-.8 3v.6a5.5 5.5 0 00.8 3 2.5 2.5 0 003.5.6 2.4 2.4 0 00.6-.6 5.5 5.5 0 00.7-3zm4.4-2.8h2.5v7.4h3.2V3.8h2.6v7.5h1.4l-.2 4.8H183v-2.8h-7.2zm13.7 9.5h-2.6V3.8h2.6zm-2.7-12a1.3 1.3 0 01.3-1 1.5 1.5 0 011-.3 1.4 1.4 0 011 .4 1.3 1.3 0 01.5 1 1.2 1.2 0 01-.4 1 1.4 1.4 0 01-1 .3 1.4 1.4 0 01-1-.4 1.2 1.2 0 01-.4-1zm13 12h-2.5V9.6H194v3.7h-2.5V3.8h2.5v3.8h3.2V3.8h2.5zm5.7-3.5h-1v3.5H202V3.8h2.5v3.6h1l2-3.6h3.2l-3 4.5 3.3 5h-3.4zm12 3.5a2.8 2.8 0 01-.3-.9 3 3 0 01-2.4 1 3.4 3.4 0 01-2.3-.8 2.6 2.6 0 01-1-2 2.7 2.7 0 011.2-2.3 5.6 5.6 0 013.2-.9h1.2V7a1.6 1.6 0 00-.4-1 1.4 1.4 0 00-1-.4 1.6 1.6 0 00-1 .3 1.1 1.1 0 00-.4.8h-2.5a2.6 2.6 0 01.5-1.5 3.5 3.5 0 011.4-1.1 5.3 5.3 0 012-.4 4.2 4.2 0 012.9.9 3.1 3.1 0 011 2.5V11a4.5 4.5 0 00.3 2v.2zm-2.2-1.8a2 2 0 001-.2 1.7 1.7 0 00.7-.7V9h-1c-1.2 0-2 .4-2 1.3v.2a1 1 0 00.4.8 1.3 1.3 0 001 .2zM274.7 4.9l2.4-4.4h3l-3.7 6.3 3.8 6.5h-3l-2.5-4.5-2.5 4.5h-3l3.8-6.5-3.7-6.3h3zm12.2 8.4a2.8 2.8 0 01-.2-.8 3 3 0 01-2.4 1 3.4 3.4 0 01-2.3-.9 2.6 2.6 0 01-1-2 2.7 2.7 0 011.1-2.3 5.6 5.6 0 013.3-.9h1.1V7a1.6 1.6 0 00-.3-1 1.4 1.4 0 00-1-.4 1.6 1.6 0 00-1 .3 1.1 1.1 0 00-.4.8h-2.6a2.6 2.6 0 01.5-1.5 3.5 3.5 0 011.5-1.1 5.4 5.4 0 012.1-.4 4.2 4.2 0 012.8.9 3.1 3.1 0 011 2.5V11a4.4 4.4 0 00.4 2v.2zm-2-1.8a2.2 2.2 0 001-.2 1.7 1.7 0 00.6-.7V9h-1c-1.2 0-1.9.4-2 1.3v.2a1 1 0 00.4.8 1.3 1.3 0 001 .2zm14.7-2.9a5.7 5.7 0 01-1 3.6 3.2 3.2 0 01-2.7 1.3 3 3 0 01-2.3-1V17h-2.5V3.8h2.3l.1 1a3 3 0 012.4-1.2 3.2 3.2 0 012.8 1.3 6 6 0 011 3.6zm-2.5-.2a3.7 3.7 0 00-.5-2 1.5 1.5 0 00-1.4-.7 1.7 1.7 0 00-1.6 1v3.8a1.7 1.7 0 001.7 1c1.2 0 1.8-1 1.8-3zm9.6 4.9a3 3 0 01-.2-.8 3 3 0 01-2.4 1 3.4 3.4 0 01-2.4-.9 2.6 2.6 0 01-.9-2 2.7 2.7 0 011.2-2.3 5.6 5.6 0 013.2-.8h1.2v-.6a1.6 1.6 0 00-.4-1 1.4 1.4 0 00-1-.4 1.6 1.6 0 00-1 .3 1 1 0 00-.4.8H301a2.5 2.5 0 01.5-1.5A3.5 3.5 0 01303 4a5.3 5.3 0 012-.4 4.2 4.2 0 012.9.9 3 3 0 011 2.5V11a4.6 4.6 0 00.3 2v.2zm-2-1.8a2 2 0 001-.2 1.6 1.6 0 00.6-.7V9h-1c-1.2 0-2 .4-2 1.3v.2a1 1 0 00.4.8 1.2 1.2 0 001 .2zm10-1.7h-1v3.5H311V3.8h2.5v3.6h1l2-3.6h3.2l-3 4.5 3.3 5h-3.4zm14.2-4h-3v7.5h-2.6V5.8h-3v-2h8.6zm5.1 7.7a4.7 4.7 0 01-3.4-1.3 4.6 4.6 0 01-1.3-3.4v-.3a5.8 5.8 0 01.5-2.5 4 4 0 011.6-1.7 4.5 4.5 0 012.3-.7 4 4 0 013 1.3 5 5 0 011.2 3.5v1h-6a2.3 2.3 0 00.7 1.5 2.2 2.2 0 001.6.5 2.8 2.8 0 002.3-1l1.2 1.4a3.9 3.9 0 01-1.5 1.2 5 5 0 01-2.2.5zm-.3-7.8a1.6 1.6 0 00-1.2.5 2.5 2.5 0 00-.6 1.4h3.5v-.2a1.8 1.8 0 00-.4-1.3 1.6 1.6 0 00-1.3-.4zm14.2 3a5.7 5.7 0 01-1 3.5 3.2 3.2 0 01-2.7 1.3 3 3 0 01-2.3-1V17h-2.5V3.8h2.3l.1 1a3 3 0 012.4-1.2 3.2 3.2 0 012.8 1.3 6 6 0 011 3.6zm-2.5-.2a3.7 3.7 0 00-.5-2 1.5 1.5 0 00-1.4-.7 1.7 1.7 0 00-1.6.9v3.9a1.7 1.7 0 001.7.9c1.2 0 1.8-1 1.8-3zm9.8-4.7h2.6v9.5h-2.6V7.4l-3.1 5.9h-2.6V3.8h2.5v5.9zm8.5 7.7a1.6 1.6 0 001.1-.4 1.4 1.4 0 00.5-1h2.4a3.3 3.3 0 01-.6 1.7 3.6 3.6 0 01-1.4 1.2 4.5 4.5 0 01-2 .4 4.2 4.2 0 01-3.2-1.3 5.1 5.1 0 01-1.2-3.6 5.2 5.2 0 011.2-3.6 4 4 0 013.2-1.3 4 4 0 012.8 1 3.6 3.6 0 011.1 2.7h-2.3a1.7 1.7 0 00-.5-1.2 1.5 1.5 0 00-1.2-.5 1.6 1.6 0 00-1.3.7 4 4 0 00-.5 2v.3a3.9 3.9 0 00.5 2.2 1.5 1.5 0 001.4.6zM377 5.7h-3v7.5h-2.6V5.8h-3v-2h8.6zm7-2h2.5v9.5H384V7.4l-3.2 5.9h-2.5V3.8h2.5v5.9zm8.2 6h-1v3.5h-2.5V3.8h2.5v3.6h1l2-3.6h3.2l-3.1 4.5 3.4 5h-3.4zm12 3.5a2.7 2.7 0 01-.3-.8 3 3 0 01-2.4 1 3.3 3.3 0 01-2.3-.8 2.6 2.6 0 01-1-2 2.7 2.7 0 011.2-2.4 5.6 5.6 0 013.2-.8h1.2v-.6a1.6 1.6 0 00-.4-1 1.4 1.4 0 00-1-.4 1.6 1.6 0 00-1 .3 1.1 1.1 0 00-.4.8h-2.5a2.6 2.6 0 01.5-1.5 3.5 3.5 0 011.4-1.1 5.4 5.4 0 012.1-.4 4.2 4.2 0 012.8.9 3.1 3.1 0 011 2.5V11a4.4 4.4 0 00.4 2v.2zm-2.2-1.8a2 2 0 001-.2 1.7 1.7 0 00.7-.7V9h-1c-1.2 0-1.9.4-2 1.3v.2a1 1 0 00.4.8 1.3 1.3 0 00.9.2z"/><path fill="#fff" d="M162.3 70.6h59.5v1.5h-59.5zM162.3 106.7h59.5v1.5h-59.5zM162.3 142.7h59.5v1.5h-59.5zM162.3 178.8h59.5v1.5h-59.5zM162.3 214.8h59.5v1.5h-59.5zM162.3 250.9h59.5v1.5h-59.5zM162.3 286.9h59.5v1.5h-59.5zM162.3 323h59.5v1.5h-59.5zM162.3 359h59.5v1.5h-59.5zM162.3 395.1h59.5v1.5h-59.5zM162.3 431.1h59.5v1.5h-59.5zM162.3 467.3h59.5v1.5h-59.5z"/></svg>