<svg xmlns="http://www.w3.org/2000/svg" viewBox="0 0 499 32"><path d="M4.36,1.16H0V25.23H4.36Z" style="fill:#fff"/><path d="M13,7.18H8.89V25.23H13v-7.3h7v7.3h4.09v-18H20v7.26H13Z" style="fill:#fff"/><path d="M26.78,30.47H31V25.23H42.78v5.24h4.11V21.73h-2.8V7.18h-13l-.52,6.32c-.34,4.05-.79,7-2.31,8.23H26.78Zm5.81-8.74c1.14-1.68,1.56-4.41,1.87-8.23l.28-2.89H40V21.73Z" style="fill:#fff"/><path d="M58.06,25.58c4.2,0,7.09-2,7.85-5.19l-4-.45a3.75,3.75,0,0,1-3.82,2.33c-2.75,0-4.57-1.81-4.6-4.9H66.08V16.06C66.08,9.73,62.27,7,57.83,7c-5.17,0-8.54,3.79-8.54,9.36S52.61,25.58,58.06,25.58ZM53.52,14.5a4.34,4.34,0,0,1,4.37-4.24A4,4,0,0,1,62,14.5Z" style="fill:#fff"/><path d="M69.68,25.23h4.25v-6.8H76L81,25.23h5.15L79.35,16,86,7.18H80.91l-5.42,7.29H73.93V7.18H69.68Z" style="fill:#fff"/><path d="M95.65,25.58c4.54,0,7.43-2.69,7.73-6.52H99.32a3.53,3.53,0,0,1-3.63,3.06c-2.66,0-4.38-2.22-4.38-5.91s1.76-5.83,4.38-5.83a3.53,3.53,0,0,1,3.63,3h4.06C103.09,9.52,100,7,95.63,7,90.34,7,87,10.76,87,16.28S90.26,25.58,95.65,25.58Z" style="fill:#fff"/><path d="M134.91,1.16H115.73V25.23h4.33V4.78h10.53V25.23h4.32Z" style="fill:#fff"/><path d="M139.94,32h4.25V22.39h.18a5.44,5.44,0,0,0,5.17,3.16c4.25,0,7.44-3.37,7.44-9.32S153.7,7,149.53,7a5.34,5.34,0,0,0-5.16,3.22h-.25v-3h-4.18Zm4.17-15.79c0-3.51,1.5-5.77,4.24-5.77s4.29,2.4,4.29,5.77-1.48,5.85-4.29,5.85S144.11,19.71,144.11,16.21Z" style="fill:#fff"/><path d="M168.49,25.58c5.29,0,8.65-3.72,8.65-9.3S173.78,7,168.49,7s-8.65,3.73-8.65,9.33S163.2,25.58,168.49,25.58Zm0-3.4c-2.93,0-4.36-2.61-4.36-5.92s1.43-5.94,4.36-5.94,4.31,2.64,4.31,5.94S171.4,22.18,168.52,22.18Z" style="fill:#fff"/><path d="M179.75,20.28c.11,3.35,3.18,5.3,7.35,5.3s7.37-2,7.37-5.36a4,4,0,0,0-3.8-4.23v-.18c2.07-.56,3.38-1.85,3.38-3.8,0-3-2.63-5.06-6.86-5.06-3.95,0-6.92,2-7,5.19h4.2c0-1.21,1.29-2.06,3-2.06s2.72.91,2.72,2.25-.94,2.15-2.71,2.15h-2.76v3h2.76c1.78,0,2.94,1,2.94,2.45,0,1.65-1.44,2.45-3.27,2.45s-3-.78-3.1-2.12Z" style="fill:#fff"/><path d="M205.69,25.58c5.29,0,8.65-3.72,8.65-9.3S211,7,205.69,7,197,10.68,197,16.28,200.4,25.58,205.69,25.58Zm0-3.4c-2.92,0-4.36-2.61-4.36-5.92s1.44-5.94,4.36-5.94S210,13,210,16.26,208.59,22.18,205.71,22.18Z" style="fill:#fff"/><path d="M218,32h4.25V22.39h.18a5.45,5.45,0,0,0,5.17,3.16c4.25,0,7.44-3.37,7.44-9.32S231.71,7,227.54,7a5.34,5.34,0,0,0-5.16,3.22h-.25v-3H218Zm4.17-15.79c0-3.51,1.51-5.77,4.24-5.77s4.29,2.4,4.29,5.77-1.48,5.85-4.29,5.85S222.12,19.71,222.12,16.21Z" style="fill:#fff"/><path d="M246.51,25.58c5.28,0,8.64-3.72,8.64-9.3S251.79,7,246.51,7s-8.65,3.73-8.65,9.33S241.22,25.58,246.51,25.58Zm0-3.4c-2.93,0-4.36-2.61-4.36-5.92s1.43-5.94,4.36-5.94,4.31,2.64,4.31,5.94S249.41,22.18,246.53,22.18Z" style="fill:#fff"/><path d="M266.64,25.58c4.53,0,7.43-2.69,7.73-6.52H270.3a3.52,3.52,0,0,1-3.63,3.06c-2.65,0-4.37-2.22-4.37-5.91s1.75-5.83,4.37-5.83a3.52,3.52,0,0,1,3.63,3h4.07C274.08,9.52,271,7,266.61,7c-5.28,0-8.62,3.81-8.62,9.33S261.24,25.58,266.64,25.58Z" style="fill:#fff"/><path d="M276.59,10.67h5.84V25.23h4.11V10.67h5.84V7.18H276.59Z" style="fill:#fff"/><path d="M295.77,25.23H300v-18h-4.25Zm2.14-20.61a2.39,2.39,0,0,0,2.45-2.3,2.46,2.46,0,0,0-4.92,0A2.39,2.39,0,0,0,297.91,4.62Z" style="fill:#fff"/><path d="M312.79,25.23h15.75V21.58H317.15V15h10.48V11.35H317.15V4.82h11.3V1.16H312.79Z" style="fill:#fff"/><path d="M336.81,7.18H332.7V25.23h4.11v-7.3h7v7.3h4.09v-18H343.8v7.26h-7Z" style="fill:#fff"/><path d="M360.18,25.58c4.21,0,7.1-2,7.85-5.19l-4-.45a3.76,3.76,0,0,1-3.82,2.33c-2.75,0-4.57-1.81-4.6-4.9h12.57V16.06C368.21,9.73,364.4,7,360,7c-5.17,0-8.54,3.79-8.54,9.36S354.74,25.58,360.18,25.58ZM355.65,14.5A4.34,4.34,0,0,1,360,10.26a4,4,0,0,1,4.11,4.24Z" style="fill:#fff"/><path d="M371.81,32h4.25V22.39h.18a5.45,5.45,0,0,0,5.17,3.16c4.25,0,7.44-3.37,7.44-9.32S385.57,7,381.4,7a5.34,5.34,0,0,0-5.16,3.22H376v-3h-4.18ZM376,16.21c0-3.51,1.5-5.77,4.24-5.77s4.29,2.4,4.29,5.77-1.48,5.85-4.29,5.85S376,19.71,376,16.21Z" style="fill:#fff"/><path d="M404.43,7.18H392.49V25.23h4.16V10.67h7.78Z" style="fill:#fff"/><path d="M415.09,25.58c4.21,0,7.1-2,7.85-5.19l-4-.45a3.77,3.77,0,0,1-3.82,2.33c-2.75,0-4.57-1.81-4.61-4.9h12.57V16.06c0-6.33-3.8-9.11-8.25-9.11-5.16,0-8.54,3.79-8.54,9.36S409.65,25.58,415.09,25.58ZM410.55,14.5a4.34,4.34,0,0,1,4.37-4.24A4,4,0,0,1,419,14.5Z" style="fill:#fff"/><path d="M425.21,10.67h5.84V25.23h4.11V10.67H441V7.18H425.21Z" style="fill:#fff"/><path d="M448.49,19.47V7.18h-4.1V25.23h4.38L456,12.93v12.3h4.11v-18h-4.37Z" style="fill:#fff"/><path d="M464.46,25.23h4.25v-6.8h2.08l4.95,6.8h5.15L474.13,16l6.69-8.86h-5.13l-5.42,7.29h-1.56V7.18h-4.25Z" style="fill:#fff"/><path d="M487.4,19.47V7.18h-4.1V25.23h4.38l7.21-12.3v12.3H499v-18h-4.37Z" style="fill:#fff"/></svg>
