<svg xmlns="http://www.w3.org/2000/svg" width="24" height="24" viewBox="0 0 24 24"><path d="M22,0H2A2,2,0,0,0,.59.59,2,2,0,0,0,0,2V22a2,2,0,0,0,.59,1.41A2,2,0,0,0,2,24H22a2,2,0,0,0,2-2V2A2,2,0,0,0,23.41.59,2,2,0,0,0,22,0ZM18.19,9.72l-7.33,7a1,1,0,0,1-.69.28,1,1,0,0,1-.69-.28l-3.67-3.5a1,1,0,0,1-.23-.32,1,1,0,0,1,0-.76.89.89,0,0,1,.21-.33,1,1,0,0,1,.32-.23,1,1,0,0,1,.76,0,1,1,0,0,1,.33.21l3,2.84,6.64-6.34a1,1,0,0,1,.33-.21,1,1,0,0,1,.76,0,1,1,0,0,1,.32.23.89.89,0,0,1,.21.33,1,1,0,0,1,0,.76A1,1,0,0,1,18.19,9.72Z"/></svg>