<svg xmlns="http://www.w3.org/2000/svg" xmlns:xlink="http://www.w3.org/1999/xlink" style="display:none"><symbol id="arrow-down"><path d="M4.5 6a1 1 0 0 1-.76-.35L.26 1.74A1.05 1.05 0 0 1 .34.27a1 1 0 0 1 1.45.08L4.5 3.4l2.71-3A1 1 0 0 1 8.66.27a1.05 1.05 0 0 1 .08 1.47L5.26 5.65A1 1 0 0 1 4.5 6z"/></symbol><symbol id="asterisk-icon"><path d="M2.82 7h1.36l-.12-2.56 2.25 1.39L7 4.67 4.61 3.5 7 2.33l-.69-1.16-2.25 1.39L4.18 0H2.82l.12 2.56L.69 1.17 0 2.33 2.39 3.5 0 4.67l.69 1.16 2.25-1.39z"/></symbol><symbol id="checkbox--checked"><path d="M22 0H2A2 2 0 0 0 .59.59 2 2 0 0 0 0 2v20a2 2 0 0 0 .59 1.41A2 2 0 0 0 2 24h20a2 2 0 0 0 2-2V2a2 2 0 0 0-.59-1.41A2 2 0 0 0 22 0zm-3.81 9.72-7.33 7a1 1 0 0 1-.69.28 1 1 0 0 1-.69-.28l-3.67-3.5a1 1 0 0 1-.23-.32 1 1 0 0 1 0-.76.89.89 0 0 1 .21-.33 1 1 0 0 1 .32-.23 1 1 0 0 1 .76 0 1 1 0 0 1 .33.21l3 2.84 6.64-6.34a1 1 0 0 1 .33-.21 1 1 0 0 1 .76 0 1 1 0 0 1 .32.23.89.89 0 0 1 .21.33 1 1 0 0 1 0 .76 1 1 0 0 1-.27.32z"/></symbol><symbol id="checkbox"><path d="M22 24H2a2 2 0 0 1-2-2V2a2 2 0 0 1 2-2h20a2 2 0 0 1 2 2v20a2 2 0 0 1-2 2zM2 2v20h20V2z"/></symbol><symbol id="close"><path d="M16 0H8a8 8 0 0 0-8 8v8a8 8 0 0 0 8 8h8a8 8 0 0 0 8-8V8a8 8 0 0 0-8-8zm6 16a6 6 0 0 1-6 6H8a6 6 0 0 1-6-6V8a6 6 0 0 1 6-6h8a6 6 0 0 1 6 6z"/><path d="M16.71 7.29a1 1 0 0 0-1.42 0L12 10.59l-3.29-3.3a1 1 0 1 0-1.42 1.42l3.3 3.29-3.3 3.29a1 1 0 0 0 0 1.42 1 1 0 0 0 1.42 0l3.29-3.3 3.29 3.3a1 1 0 0 0 1.42 0 1 1 0 0 0 0-1.42L13.41 12l3.3-3.29a1 1 0 0 0 0-1.42z"/></symbol><symbol id="collapse"><path d="M12.5 0A12.5 12.5 0 1 0 25 12.5 12.52 12.52 0 0 0 12.5 0zm0 23.08A10.58 10.58 0 1 1 23.08 12.5 10.6 10.6 0 0 1 12.5 23.08z"/><path d="M13.21 8.49a1 1 0 0 0-1.42 0L7.46 13.3a1 1 0 1 0 1.43 1.29l3.61-4 3.61 4a1 1 0 0 0 1.36.07 1 1 0 0 0 .07-1.36z"/></symbol><symbol id="download"><path d="M11.44 16.56a1.59 1.59 0 0 0 .46.3h.07a1.4 1.4 0 0 0 .47.09h.08a1.4 1.4 0 0 0 .48-.05h.07a1.59 1.59 0 0 0 .46-.3l5.25-5.25a1.5 1.5 0 0 0-2.12-2.12L14 11.88V1.5a1.5 1.5 0 0 0-3 0v10.38L8.31 9.19a1.5 1.5 0 1 0-2.12 2.12z"/><path d="M23.5 14a1.5 1.5 0 0 0-1.5 1.5V22H3v-6.5a1.5 1.5 0 0 0-3 0v7A2.49 2.49 0 0 0 2.5 25h20a2.49 2.49 0 0 0 2.5-2.5v-7a1.5 1.5 0 0 0-1.5-1.5z"/></symbol><symbol id="envelope"><path d="M26 1V.88a.13.13 0 0 0 0-.06.09.09 0 0 0 0-.05V.72H.69v.05c0 .05 0 0 0 0A.09.09 0 0 0 0 .78a.13.13 0 0 0 0 .1V18a2 2 0 0 0 .59 1.41A2 2 0 0 0 2 20h22a2 2 0 0 0 2-2V1zM2 3.27 9.34 10 2 16.73zM3.57 18l7.25-6.64 1.5 1.38a1 1 0 0 0 1.36 0l1.5-1.38L22.43 18zm13.09-8L24 3.27v13.46z"/></symbol><symbol id="file-down"><path d="M16.77 5.6 11.36.23h-.11L11 0H1.55a1.56 1.56 0 0 0-1.1.45A1.54 1.54 0 0 0 0 1.54v16.92a1.54 1.54 0 0 0 .45 1.09 1.56 1.56 0 0 0 1.1.45h13.9a1.56 1.56 0 0 0 1.1-.45 1.54 1.54 0 0 0 .45-1.09V6.15a.72.72 0 0 0-.06-.29.78.78 0 0 0-.17-.26zm-5 7.64-2.7 2.69H9V16H8l-2.7-2.69a.76.76 0 0 1-.3-.62.77.77 0 0 1 1.32-.54l1.39 1.38v-4.3A.77.77 0 0 1 8 8.69a.77.77 0 0 1 1.1 0 .77.77 0 0 1 .22.54v4.3l1.39-1.38a.74.74 0 0 1 .25-.17.72.72 0 0 1 .29-.06.73.73 0 0 1 .3.06.85.85 0 0 1 .25.17.74.74 0 0 1 .17.25.72.72 0 0 1 .06.29.8.8 0 0 1-.06.3 1 1 0 0 1-.17.25zm-.93-7.09V1.86l4.31 4.29z"/></symbol><symbol id="menu-burger"><path d="M23.5 8.5h-22a1.5 1.5 0 0 0 0 3h22a1.5 1.5 0 0 0 0-3zM1.5 3h22a1.5 1.5 0 0 0 0-3h-22a1.5 1.5 0 0 0 0 3zM23.5 17h-22a1.5 1.5 0 0 0 0 3h22a1.5 1.5 0 0 0 0-3z" style="fill:#fff"/></symbol><symbol id="menu-close"><path d="m13.22 11 8.32-8.32A1.57 1.57 0 1 0 19.32.46L11 8.78 2.68.46A1.57 1.57 0 0 0 .46 2.68L8.78 11 .46 19.32a1.58 1.58 0 0 0 0 2.22 1.56 1.56 0 0 0 1.11.46 1.54 1.54 0 0 0 1.11-.46L11 13.22l8.32 8.32a1.54 1.54 0 0 0 1.11.46 1.56 1.56 0 0 0 1.11-.46 1.58 1.58 0 0 0 0-2.22z" style="fill:#fff"/></symbol></svg>