<svg xmlns="http://www.w3.org/2000/svg" width="17" height="20" viewBox="0 0 17 20"><path d="M16.77,5.6,11.36.23l0,0,0,0,0,0,0,0h0l-.05,0h0l-.06,0h0L11,0H1.55A1.56,1.56,0,0,0,.45.45,1.54,1.54,0,0,0,0,1.54V18.46a1.54,1.54,0,0,0,.45,1.09,1.56,1.56,0,0,0,1.1.45h13.9a1.56,1.56,0,0,0,1.1-.45A1.54,1.54,0,0,0,17,18.46V6.15a.72.72,0,0,0-.06-.29.78.78,0,0,0-.17-.26Zm-5,7.64-2.7,2.69H9L9,16l0,0,0,0,0,0h0l0,0,0,0H8.2l0,0,0,0h0l0,0,0,0,0,0,0,0H8l-2.7-2.69A.76.76,0,0,1,5,12.69a.77.77,0,0,1,1.32-.54l1.39,1.38V9.23A.77.77,0,0,1,8,8.69a.77.77,0,0,1,1.1,0,.77.77,0,0,1,.22.54v4.3l1.39-1.38a.74.74,0,0,1,.25-.17.72.72,0,0,1,.29-.06.73.73,0,0,1,.3.06.85.85,0,0,1,.25.17.74.74,0,0,1,.17.25.72.72,0,0,1,.06.29.8.8,0,0,1-.06.3,1,1,0,0,1-.17.25Zm-.93-7.09V1.86l4.31,4.29Z"/></svg>